<svg width="274" height="80" viewBox="0 0 274 80" fill="none" xmlns="http://www.w3.org/2000/svg">
<path d="M119.335 30.3628V34.1428H109.19V38.2732H118.53V42.0802H109.19V50.0242H104.312V30.3628H119.335Z" fill="#0073FF"/>
<path d="M123.321 30.3359H127.535V33.6712H123.321V30.3359ZM123.321 35.4568H127.535V50.0175H123.321V35.4568Z" fill="#0073FF"/>
<path d="M130.554 35.4837H135.05C136.828 41.9454 137.13 43.2661 137.6 46.0421C138.184 42.8146 138.271 42.4575 139.13 39.0279L140.015 35.4702H144.397L139.7 50.004H135.245L130.554 35.4837Z" fill="#0073FF"/>
<path d="M160.568 46.3116C160.074 47.1052 159.486 47.8359 158.817 48.488C157.32 49.8414 155.369 50.5777 153.355 50.5498C149.054 50.5498 146.034 47.767 146.034 43.0302C146.034 39.5197 147.752 35.0053 153.462 35.0053C154.428 34.9757 155.388 35.1459 156.285 35.5052C157.182 35.8646 157.996 36.4054 158.676 37.094C160.568 39.1154 160.689 41.9723 160.729 43.6097H150.396C150.396 45.4222 151.389 47.228 153.711 47.228C156.032 47.228 156.844 45.6917 157.374 44.6675L160.568 46.3116ZM156.321 40.9212C156.286 40.1637 156.003 39.4389 155.516 38.8594C154.952 38.332 154.206 38.0446 153.435 38.0576C153.03 38.055 152.628 38.1376 152.256 38.3C151.884 38.4625 151.55 38.7012 151.275 39.0009C150.814 39.5466 150.516 40.2125 150.416 40.9212H156.321Z" fill="#0073FF"/>
<path d="M164.956 31.2792H169.204V35.8206H172.002V38.4349H169.177V45.0112C169.177 45.9006 169.177 46.6754 170.284 46.6754L171.814 46.6216V49.9569C171.072 50.0913 170.32 50.1656 169.566 50.1792C168.09 50.1792 166.486 50.0984 165.54 48.7575C164.956 47.895 164.93 46.8641 164.93 45.4761V38.408H162.823V35.7869H164.93L164.956 31.2792Z" fill="#0073FF"/>
<path d="M179.678 36.9863C180.841 35.9637 182.32 35.3758 183.865 35.322V39.1222L182.456 39.3445C180.403 39.7017 179.772 40.0183 179.772 41.8511V50.0175H175.525V35.4567H179.685L179.678 36.9863Z" fill="#0073FF"/>
<path d="M186.952 39.6208C186.943 39.0011 187.077 38.3877 187.342 37.828C187.607 37.2684 187.997 36.7775 188.482 36.3933C189.824 35.3422 191.528 35.1198 193.226 35.1198C194.923 35.1198 199.311 35.5308 199.311 39.2906V47.7064C199.311 49.2696 199.392 49.4919 199.727 49.9906H195.567V48.643C194.46 49.4515 193.266 50.3746 191.139 50.3746C187.824 50.3746 186.401 47.9759 186.401 45.9275C186.401 43.5894 188.26 42.2553 189.448 41.7567C191.313 41.1559 193.222 40.7052 195.158 40.4091V39.6275C195.104 38.9537 195.051 37.842 193.501 37.842C191.615 37.842 191.36 39.0144 191.253 39.5467L186.952 39.6208ZM192.36 44.0005C191.642 44.2767 190.528 44.6743 190.528 45.8063C190.551 46.2174 190.734 46.603 191.038 46.8793C191.342 47.1556 191.742 47.3002 192.152 47.2819C192.676 47.2657 193.185 47.1023 193.621 46.8102C195.031 45.9208 195.091 44.5867 195.124 43.0774L192.36 44.0005Z" fill="#0073FF"/>
<path d="M208.464 36.7908C208.857 36.3081 209.352 35.9192 209.913 35.6521C210.747 35.3008 211.64 35.1132 212.544 35.0995C213.439 35.0776 214.326 35.2766 215.127 35.679C216.65 36.4876 217.039 37.7948 217.039 40.052V50.0174H212.799V41.8308C212.872 41.1018 212.806 40.3654 212.604 39.6612C212.436 39.3024 212.163 39.0037 211.821 38.805C211.479 38.6063 211.085 38.5171 210.692 38.5494C208.444 38.5494 208.444 40.3619 208.444 42.1677V50.0174H204.19V35.5106H208.491L208.464 36.7908Z" fill="#0073FF"/>
<path d="M78.2704 40.0385H82.7728C82.9507 40.0385 83.1214 39.9675 83.2472 39.8412C83.3731 39.7148 83.4438 39.5434 83.4438 39.3647C83.4434 39.2723 83.4252 39.1807 83.3901 39.0952L75.6468 17.9312C75.599 17.8067 75.5154 17.6992 75.4067 17.6225C75.298 17.5457 75.169 17.5031 75.0362 17.5H70.5204C70.3424 17.5 70.1718 17.571 70.0459 17.6973C69.9201 17.8237 69.8494 17.9951 69.8494 18.1738C69.8495 18.2519 69.8631 18.3294 69.8896 18.4029L77.6396 39.6208C77.6908 39.746 77.7784 39.8528 77.8909 39.9273C78.0034 40.0018 78.1356 40.0406 78.2704 40.0385Z" fill="#0073FF"/>
<path d="M77.4718 62.5299H81.9742C82.1521 62.5299 82.3228 62.4589 82.4486 62.3325C82.5744 62.2062 82.6451 62.0348 82.6451 61.8561C82.6451 61.778 82.6314 61.7004 82.6049 61.627L66.6419 17.9447C66.5936 17.8191 66.5091 17.7109 66.399 17.6341C66.289 17.5572 66.1586 17.5152 66.0245 17.5134H61.5289C61.3509 17.5134 61.1802 17.5844 61.0544 17.7108C60.9286 17.8371 60.8579 18.0085 60.8579 18.1872C60.858 18.2654 60.8716 18.3429 60.8981 18.4163L76.8612 62.1054C76.91 62.2287 76.994 62.3347 77.1026 62.4102C77.2113 62.4857 77.3397 62.5274 77.4718 62.5299Z" fill="#0073FF"/>
<path d="M68.6013 62.5299H73.097C73.266 62.5305 73.4291 62.4669 73.5535 62.352C73.6779 62.2371 73.7545 62.0792 73.768 61.91C73.7677 61.8209 73.7542 61.7323 73.7277 61.6472L65.9576 40.463C65.9098 40.3385 65.8262 40.231 65.7175 40.1543C65.6088 40.0775 65.4798 40.0349 65.347 40.0318H60.8245C60.6536 40.0421 60.4931 40.1176 60.3758 40.2429C60.2586 40.3681 60.1934 40.5337 60.1937 40.7056C60.1935 40.7794 60.2072 40.8525 60.234 40.9212L67.9706 62.1122C68.0218 62.2374 68.1093 62.3442 68.2218 62.4187C68.3343 62.4932 68.4666 62.5319 68.6013 62.5299Z" fill="#0073FF"/>
<path d="M78.8139 18.4231L82.444 28.3347C82.4918 28.4592 82.5753 28.5667 82.684 28.6434C82.7927 28.7202 82.9217 28.7628 83.0546 28.7659H87.5368C87.7148 28.7659 87.8855 28.6949 88.0113 28.5685C88.1371 28.4422 88.2078 28.2708 88.2078 28.0921C88.2078 28.014 88.1941 27.9364 88.1676 27.863L84.5375 17.9447C84.4897 17.8202 84.4061 17.7127 84.2974 17.6359C84.1887 17.5592 84.0597 17.5165 83.9269 17.5135H79.4245C79.2465 17.5135 79.0759 17.5844 78.95 17.7108C78.8242 17.8372 78.7535 18.0086 78.7535 18.1873C78.7592 18.2689 78.7797 18.3488 78.8139 18.4231Z" fill="#0073FF"/>
<path d="M60.3011 62.5299H64.7968C64.9747 62.5299 65.1454 62.4589 65.2712 62.3326C65.397 62.2062 65.4678 62.0348 65.4678 61.8561C65.4677 61.778 65.454 61.7005 65.4275 61.627L61.7773 51.6885C61.729 51.5629 61.6445 51.4548 61.5345 51.3779C61.4244 51.3011 61.294 51.259 61.16 51.2573H56.671C56.493 51.2573 56.3224 51.3283 56.1965 51.4546C56.0707 51.581 56 51.7524 56 51.9311C56.0002 52.0114 56.0139 52.0911 56.0403 52.1669L59.6703 62.1054C59.7205 62.2319 59.8076 62.3401 59.9202 62.4159C60.0328 62.4917 60.1655 62.5314 60.3011 62.5299Z" fill="#0073FF"/>
</svg>
