<svg width="274" height="80" viewBox="0 0 274 80" fill="none" xmlns="http://www.w3.org/2000/svg">
<path fill-rule="evenodd" clip-rule="evenodd" d="M195.957 47.9808C196.033 48.8503 196.728 49.9572 197.934 49.9572H198.638C198.912 49.9572 199.136 49.7332 199.136 49.4597V33.9539H199.133C199.119 33.6927 198.903 33.4835 198.638 33.4835H196.454C196.19 33.4835 195.974 33.6927 195.96 33.9539H195.957V35.2139C194.618 33.564 192.508 32.8792 190.392 32.8792C185.581 32.8792 181.682 36.7816 181.682 41.5958C181.682 46.4103 185.581 50.3128 190.392 50.3128C192.508 50.3128 194.815 49.4916 195.957 47.9789V47.9808ZM190.4 47.2622C187.341 47.2622 184.861 44.7255 184.861 41.5958C184.861 38.4667 187.341 35.93 190.4 35.93C193.46 35.93 195.94 38.4667 195.94 41.5958C195.94 44.7255 193.46 47.2622 190.4 47.2622Z" fill="#0D0E10"/>
<path fill-rule="evenodd" clip-rule="evenodd" d="M178.919 40.4905C178.919 35.9677 176.068 32.9165 171.522 32.9165C169.352 32.9165 167.573 34.1725 166.944 35.2514C166.808 34.4078 166.361 33.521 164.973 33.521H164.266C163.992 33.521 163.769 33.7452 163.769 34.0187V48.0196C163.769 48.02 163.769 48.0211 163.769 48.0218V49.5257H163.771C163.786 49.7865 164.002 49.996 164.266 49.996H166.45C166.484 49.996 166.517 49.992 166.548 49.9858C166.563 49.983 166.576 49.9773 166.59 49.9733C166.607 49.9683 166.624 49.9645 166.639 49.9581C166.658 49.9501 166.676 49.9393 166.694 49.9291C166.703 49.9237 166.712 49.9199 166.721 49.9143C166.743 49.9002 166.763 49.8832 166.782 49.866C166.785 49.8628 166.789 49.8606 166.792 49.8577C166.814 49.8366 166.834 49.8135 166.851 49.7894C166.906 49.7143 166.939 49.6233 166.945 49.5257H166.948V40.3661C166.948 37.937 168.915 35.9677 171.343 35.9677C173.77 35.9677 175.738 37.937 175.738 40.3661L175.74 48.0223L175.74 48.0196C175.74 48.0264 175.742 48.0333 175.742 48.0406V49.5257H175.744C175.759 49.7865 175.975 49.996 176.239 49.996H178.424C178.457 49.996 178.49 49.992 178.521 49.9858C178.534 49.9835 178.546 49.9782 178.559 49.9747C178.577 49.9695 178.595 49.965 178.612 49.9581C178.63 49.9507 178.647 49.9404 178.663 49.9308C178.674 49.9251 178.685 49.9208 178.694 49.9143C178.715 49.901 178.733 49.8849 178.751 49.8691C178.756 49.8648 178.761 49.8616 178.765 49.8573C178.786 49.8373 178.805 49.8157 178.821 49.7931C178.823 49.7914 178.824 49.79 178.825 49.7883C178.879 49.7139 178.912 49.624 178.918 49.527C178.918 49.5263 178.918 49.5257 178.918 49.5257H178.921L178.919 40.4905Z" fill="#0D0E10"/>
<path fill-rule="evenodd" clip-rule="evenodd" d="M156.168 47.9808C156.244 48.8503 156.94 49.9571 158.145 49.9571H158.85C159.123 49.9571 159.347 49.7331 159.347 49.4596V33.9539H159.344C159.33 33.6927 159.114 33.4835 158.85 33.4835H156.665C156.401 33.4835 156.185 33.6927 156.17 33.9539H156.168V35.2139C154.829 33.564 152.719 32.8792 150.603 32.8792C145.792 32.8792 141.893 36.7816 141.893 41.5959C141.893 46.4103 145.792 50.3129 150.603 50.3129C152.719 50.3129 155.025 49.4917 156.168 47.9788L156.168 47.9808ZM150.611 47.2621C147.552 47.2621 145.072 44.7255 145.072 41.5959C145.072 38.4667 147.552 35.93 150.611 35.93C153.671 35.93 156.15 38.4667 156.15 41.5959C156.15 44.7255 153.671 47.2621 150.611 47.2621Z" fill="#0D0E10"/>
<path fill-rule="evenodd" clip-rule="evenodd" d="M128.974 45.76C130.432 46.7712 132.024 47.2623 133.554 47.2623C135.011 47.2623 136.518 46.5062 136.518 45.19C136.518 43.433 133.235 43.1596 131.172 42.458C129.109 41.7564 127.332 40.306 127.332 37.9573C127.332 34.3633 130.532 32.8789 133.519 32.8789C135.411 32.8789 137.363 33.5034 138.629 34.3979C139.065 34.7285 138.8 35.108 138.8 35.108L137.591 36.8351C137.455 37.0296 137.218 37.1977 136.877 36.9871C136.536 36.7767 135.341 35.9298 133.519 35.9298C131.696 35.9298 130.599 36.772 130.599 37.8158C130.599 39.0675 132.025 39.4612 133.696 39.8878C136.608 40.6733 139.785 41.6175 139.785 45.19C139.785 48.3566 136.825 50.3136 133.554 50.3136C131.075 50.3136 128.965 49.6064 127.195 48.3065C126.826 47.9372 127.084 47.5942 127.084 47.5942L128.286 45.876C128.531 45.5547 128.839 45.6667 128.974 45.76Z" fill="#0D0E10"/>
<path fill-rule="evenodd" clip-rule="evenodd" d="M120.575 47.9808C120.652 48.8503 121.347 49.9571 122.552 49.9571H123.257C123.53 49.9571 123.754 49.7331 123.754 49.4596V33.9539H123.751C123.737 33.6927 123.521 33.4835 123.257 33.4835H121.072C120.808 33.4835 120.592 33.6927 120.578 33.9539H120.575V35.2139C119.237 33.564 117.126 32.8792 115.01 32.8792C110.2 32.8792 106.3 36.7816 106.3 41.5959C106.3 46.4103 110.2 50.3129 115.01 50.3129C117.126 50.3129 119.433 49.4917 120.575 47.9788L120.575 47.9808ZM115.019 47.2621C111.959 47.2621 109.479 44.7255 109.479 41.5959C109.479 38.4667 111.959 35.93 115.019 35.93C118.078 35.93 120.558 38.4667 120.558 41.5959C120.558 44.7255 118.078 47.2621 115.019 47.2621Z" fill="#0D0E10"/>
<path fill-rule="evenodd" clip-rule="evenodd" d="M94.0895 42.1881C90.8525 42.1881 88.2282 44.8123 88.2282 48.0497C88.2282 51.2868 90.8525 53.911 94.0895 53.911C97.3267 53.911 99.9509 51.2868 99.9509 48.0497C99.9509 44.8123 97.3267 42.1881 94.0895 42.1881ZM78.8613 42.1886C75.6242 42.1886 73 44.8123 73 48.0497C73 51.2868 75.6242 53.911 78.8613 53.911C82.0986 53.911 84.723 51.2868 84.723 48.0497C84.723 44.8123 82.0986 42.1886 78.8613 42.1886ZM92.3367 34.8612C92.3367 38.0986 89.7126 40.7231 86.4755 40.7231C83.2382 40.7231 80.6141 38.0986 80.6141 34.8612C80.6141 31.6245 83.2382 29 86.4755 29C89.7126 29 92.3367 31.6245 92.3367 34.8612Z" fill="#F06A6A"/>
</svg>
