<svg width="274" height="80" viewBox="0 0 274 80" fill="none" xmlns="http://www.w3.org/2000/svg">
<path fill-rule="evenodd" clip-rule="evenodd" d="M64 54.9361C64 56.7945 65.206 57.9998 67.0651 57.9998L76.0207 58C81.3632 58 85.7335 56.1931 88.7047 53.0299H64V54.9361ZM76.0207 24.0002L67.0651 24C65.206 24 64 25.2055 64 27.0639V28.9701H88.7047C85.7335 25.8069 81.3632 24.0002 76.0207 24.0002ZM83.8363 45.8446C83.8363 47.348 84.8161 48.3235 86.3267 48.3235H91.693C92.3013 46.8146 92.71 45.1557 92.9 43.3656H86.3267C84.8161 43.3656 83.8363 44.3409 83.8363 45.8446ZM76.3981 36.1677C76.3981 37.6713 77.3779 38.6466 78.8885 38.6466H92.9C92.71 36.8565 92.3013 35.1977 91.693 33.6888H78.8885C77.3779 33.6888 76.3981 34.664 76.3981 36.1677ZM78.8868 45.8446C78.8868 44.3409 77.907 43.3656 76.3964 43.3656H64V48.3235H76.3964C77.907 48.3235 78.8868 47.3482 78.8868 45.8446ZM71.4487 36.1677C71.4487 34.664 70.4689 33.6888 68.9583 33.6888H64V38.6466H68.9583C70.4689 38.6466 71.4487 37.6713 71.4487 36.1677Z" fill="#0062FF"/>
<path fill-rule="evenodd" clip-rule="evenodd" d="M127.023 40.4873C127.422 38.5471 128.711 37.5605 130.405 37.5605C132.085 37.5605 133.313 38.5913 133.705 40.4873H127.023ZM130.497 34.1992C126.183 34.1992 123.5 37.6533 123.5 41.8782C123.5 46.2538 126.367 49.4992 130.629 49.4992C133.568 49.4992 135.351 48.1372 136.454 46.4221L133.711 44.6656C133.021 45.6099 131.917 46.1089 130.734 46.1089C128.799 46.1089 127.503 45.2008 127.061 43.385H134.303C134.302 43.3873 134.302 43.3897 134.301 43.3922L136.941 43.4077C137.041 42.9299 137.1 42.4362 137.1 41.8782C137.1 38.1981 134.838 34.1992 130.497 34.1992Z" fill="#0062FF"/>
<path fill-rule="evenodd" clip-rule="evenodd" d="M112.45 46.0996C109.795 46.0996 108.2 44.1967 108.2 41.8495C108.2 39.5023 109.826 37.5996 112.45 37.5996C115.074 37.5996 116.7 39.5023 116.7 41.8495C116.7 44.1967 115.104 46.0996 112.45 46.0996ZM116.411 36.446C115.351 35.173 113.846 34.3926 111.978 34.3926C107.803 34.3926 104.8 37.7746 104.8 41.9461C104.8 46.1178 107.774 49.4996 111.978 49.4996C113.846 49.4996 115.351 48.7193 116.411 47.4463V49.1276H120.1V29.0996H116.411V36.446Z" fill="#0062FF"/>
<path fill-rule="evenodd" clip-rule="evenodd" d="M148.382 41.5988C149.383 42.2984 150.018 43.3476 150.018 44.732C150.018 47.5301 148.132 49.4713 144.606 49.4713C141.288 49.4713 139.508 47.7711 138.8 46.0539L141.846 44.2753C141.846 44.2753 142.256 46.131 144.551 46.131C145.973 46.131 146.41 45.5029 146.41 44.9481C146.41 44.6911 146.328 44.2182 145.317 43.8184C143.286 43.0157 139.358 42.6556 139.358 38.9935C139.358 35.996 141.708 34.3972 144.606 34.3972C147.316 34.3972 149.057 36.0835 149.718 37.3955L146.738 39.1364C146.738 39.1364 146.164 37.6803 144.633 37.6803C143.103 37.6803 142.966 38.5654 142.966 38.8223C142.966 39.5717 143.73 39.8794 145.371 40.3641C146.343 40.651 147.341 40.9115 148.385 41.5961C148.384 41.597 148.383 41.5979 148.382 41.5988ZM208.5 38.337H205.411V44.2752C205.411 46.1311 207.215 45.7313 208.5 45.7313V49.0716C208.5 49.0716 207.823 49.1858 206.641 49.1858C204.017 49.1858 201.885 48.3865 201.885 44.2752V38.337H199.507V34.7967H201.885V30.7998H205.411V34.7967H208.5V38.337ZM158.784 45.874C160.247 45.874 161.372 45.145 161.94 43.9491L164.997 45.7796C163.799 47.9735 161.568 49.4998 158.784 49.4998C154.561 49.4998 151.609 46.1254 151.609 41.9628C151.609 37.8001 154.588 34.4257 158.784 34.4257C161.527 34.4257 163.75 35.9271 164.961 38.0918L161.911 39.9641C161.331 38.7838 160.215 38.0514 158.784 38.0514C156.65 38.0514 155.135 39.8026 155.135 41.9628C155.135 44.1229 156.636 45.874 158.784 45.874Z" fill="#0062FF"/>
<path fill-rule="evenodd" clip-rule="evenodd" d="M191.197 45.8349C188.9 45.8349 187.519 44.0442 187.519 41.8354C187.519 39.6266 188.926 37.8361 191.197 37.8361C193.467 37.8361 194.874 39.6266 194.874 41.8354C194.874 44.0442 193.494 45.8349 191.197 45.8349ZM191.635 34.347C195.512 34.347 198.3 37.6998 198.3 41.8354C198.3 45.9712 195.538 49.3238 191.635 49.3238C189.901 49.3238 188.503 48.5502 187.519 47.2881V54.5996H184.094V34.7443H187.519V36.3827C188.503 35.1207 189.901 34.347 191.635 34.347ZM177.509 48.9549V34.7725H180.934V48.9549H177.509ZM171.125 37.1951C171.786 35.4765 173.133 34.4935 175.161 34.4891V38.5736C172.783 38.3333 171.065 39.5964 171.128 42.58C171.127 42.5779 171.126 42.5756 171.125 42.5733V48.9549H167.7V34.7727H171.125V37.1951ZM177.509 32.8798V29.0996H181.047V32.8798H177.509Z" fill="#0062FF"/>
</svg>
