<svg width="274" height="80" viewBox="0 0 274 80" fill="none" xmlns="http://www.w3.org/2000/svg">
<path fill-rule="evenodd" clip-rule="evenodd" d="M101.542 50.3796C100.883 50.1284 100.452 49.5966 100.452 48.8874C100.452 48.029 101.161 47.3213 102.024 47.3213C102.278 47.3213 102.482 47.3716 102.659 47.4469C103.836 47.9895 105.117 48.2659 106.413 48.2565C109.053 48.2565 110.296 46.9933 110.296 44.5645V43.907C109.154 45.2736 107.911 46.1084 105.856 46.1084C102.684 46.1084 99.8164 43.8066 99.8164 39.785V39.7363C99.8164 35.6896 102.734 33.4144 105.856 33.4144C107.961 33.4144 109.204 34.3009 110.244 35.4385V35.4119C110.244 34.3747 111.107 33.5164 112.174 33.5164C113.237 33.5164 114.1 34.3747 114.1 35.437V44.1611C114.1 46.5885 113.518 48.357 112.376 49.4946C111.107 50.7608 109.154 51.3163 106.515 51.3163C104.812 51.3312 103.123 51.013 101.542 50.3796ZM110.296 39.7865V39.7363C110.296 37.8895 108.848 36.5997 106.972 36.5997C105.095 36.5997 103.674 37.8895 103.674 39.7363V39.7865C103.674 41.6569 105.095 42.9216 106.972 42.9216C108.848 42.9216 110.296 41.6318 110.296 39.7865ZM116.284 35.437C116.284 34.3747 117.147 33.5164 118.212 33.5164C119.278 33.5164 120.14 34.3747 120.14 35.437V36.0427C120.698 34.7293 121.611 33.5164 122.755 33.5164C123.947 33.5164 124.631 34.2994 124.631 35.3868C124.631 36.3973 123.972 37.0045 123.185 37.1818C121.232 37.6383 120.141 39.1291 120.141 41.8593V45.4494C120.141 46.5117 119.278 47.3716 118.212 47.3716C117.959 47.3721 117.709 47.3229 117.475 47.2267C117.241 47.1305 117.029 46.9891 116.85 46.8108C116.671 46.6324 116.529 46.4205 116.431 46.1872C116.334 45.9538 116.284 45.7037 116.284 45.4509V35.437ZM124.175 43.3264V43.2762C124.175 40.3169 126.432 38.9518 129.656 38.9518C131.025 38.9518 132.015 39.1793 132.98 39.5073V39.2798C132.98 37.6886 131.99 36.8021 130.062 36.8021C129.16 36.7925 128.261 36.9205 127.397 37.1818C127.218 37.2479 127.03 37.2824 126.84 37.2838C126.631 37.2877 126.424 37.25 126.23 37.1729C126.037 37.0958 125.86 36.9809 125.711 36.8348C125.562 36.6887 125.444 36.5144 125.363 36.3221C125.283 36.1298 125.241 35.9233 125.241 35.7147C125.241 35.0322 125.67 34.4516 126.281 34.2226C127.499 33.7675 128.818 33.5164 130.619 33.5164C132.724 33.5164 134.248 34.0719 135.211 35.0322C136.226 36.0427 136.684 37.5364 136.684 39.3566V45.5248C136.684 46.5619 135.846 47.3716 134.806 47.3716C133.689 47.3716 132.953 46.5885 132.953 45.7789V45.7523C132.015 46.7895 130.722 47.472 128.843 47.472C126.281 47.472 124.175 46.0064 124.175 43.3264ZM133.03 42.4399V41.7589C132.255 41.4181 131.416 41.2454 130.569 41.2521C128.919 41.2521 127.905 41.9096 127.905 43.124V43.1742C127.905 44.2114 128.768 44.8186 130.01 44.8186C131.813 44.8186 133.03 43.8317 133.03 42.4399ZM138.739 35.437C138.739 34.3747 139.602 33.5164 140.668 33.5164C141.734 33.5164 142.596 34.3747 142.596 35.437V35.5892C143.483 34.4516 144.652 33.4144 146.605 33.4144C148.381 33.4144 149.725 34.1974 150.436 35.5641C151.628 34.1738 153.051 33.4144 154.9 33.4144C157.768 33.4144 159.495 35.1341 159.495 38.3963V45.4494C159.495 46.5117 158.631 47.3716 157.566 47.3716C157.313 47.3721 157.062 47.3229 156.829 47.2267C156.595 47.1305 156.382 46.9892 156.203 46.8109C156.024 46.6325 155.882 46.4206 155.784 46.1873C155.687 45.9539 155.637 45.7037 155.636 45.4509V39.6594C155.636 37.8393 154.824 36.9041 153.379 36.9041C151.932 36.9041 151.044 37.8393 151.044 39.6594V45.4509C151.044 46.5117 150.183 47.3716 149.116 47.3716C148.606 47.3723 148.116 47.1705 147.755 46.8103C147.393 46.4502 147.189 45.9612 147.188 45.4509V39.6594C147.188 37.8393 146.376 36.9041 144.931 36.9041C143.483 36.9041 142.596 37.8393 142.596 39.6594V45.4509C142.596 46.5117 141.734 47.3716 140.668 47.3716C140.416 47.3723 140.165 47.3233 139.931 47.2271C139.697 47.131 139.485 46.9897 139.305 46.8113C139.126 46.6329 138.984 46.4209 138.887 46.1875C138.79 45.9541 138.739 45.7038 138.739 45.4509V35.437ZM161.575 35.437C161.575 34.3747 162.438 33.5164 163.503 33.5164C164.57 33.5164 165.433 34.3747 165.433 35.437V35.5892C166.319 34.4516 167.487 33.4144 169.441 33.4144C171.217 33.4144 172.561 34.1974 173.272 35.5641C174.464 34.1738 175.886 33.4144 177.737 33.4144C180.605 33.4144 182.33 35.1341 182.33 38.3963V45.4494C182.33 46.5117 181.467 47.3716 180.401 47.3716C179.89 47.3723 179.401 47.1705 179.039 46.8103C178.678 46.4502 178.474 45.9612 178.473 45.4509V39.6594C178.473 37.8393 177.66 36.9041 176.215 36.9041C174.767 36.9041 173.881 37.8393 173.881 39.6594V45.4509C173.881 46.5117 173.018 47.3716 171.953 47.3716C171.7 47.3721 171.45 47.3229 171.216 47.2267C170.982 47.1305 170.77 46.9891 170.591 46.8108C170.412 46.6324 170.27 46.4205 170.172 46.1872C170.075 45.9538 170.025 45.7037 170.025 45.4509V39.6594C170.025 37.8393 169.212 36.9041 167.766 36.9041C166.319 36.9041 165.431 37.8393 165.431 39.6594V45.4509C165.431 46.5117 164.57 47.3716 163.503 47.3716C163.251 47.3721 163 47.3229 162.767 47.2267C162.533 47.1305 162.32 46.9891 162.141 46.8108C161.962 46.6324 161.82 46.4205 161.723 46.1872C161.626 45.9538 161.576 45.7037 161.575 45.4509V35.437ZM183.599 43.3264V43.2762C183.599 40.3169 185.858 38.9518 189.08 38.9518C190.212 38.9415 191.337 39.1296 192.403 39.5073V39.2798C192.403 37.6886 191.413 36.8021 189.485 36.8021C188.42 36.8021 187.557 36.9543 186.821 37.1818C186.643 37.2479 186.455 37.2824 186.265 37.2838C186.056 37.2881 185.848 37.2507 185.654 37.1738C185.46 37.0968 185.284 36.9819 185.134 36.8358C184.985 36.6896 184.867 36.5152 184.786 36.3227C184.706 36.1302 184.664 35.9235 184.664 35.7147C184.664 35.0322 185.097 34.4516 185.705 34.2226C186.923 33.7675 188.243 33.5164 190.044 33.5164C192.151 33.5164 193.672 34.0719 194.636 35.0322C195.651 36.0427 196.107 37.5364 196.107 39.3566V45.5248C196.107 45.7698 196.058 46.0124 195.964 46.2384C195.869 46.4644 195.73 46.6693 195.556 46.8412C195.381 47.0131 195.174 47.1485 194.947 47.2396C194.719 47.3306 194.476 47.3755 194.231 47.3716C193.114 47.3716 192.378 46.5885 192.378 45.7789V45.7523C191.44 46.7895 190.144 47.472 188.268 47.472C185.705 47.472 183.599 46.0064 183.599 43.3264ZM192.455 42.4399V41.7589C191.679 41.4182 190.841 41.2455 189.994 41.2521C188.343 41.2521 187.33 41.9096 187.33 43.124V43.1742C187.33 44.2114 188.191 44.8186 189.435 44.8186C191.236 44.8186 192.455 43.8317 192.455 42.4399ZM198.164 35.437C198.164 34.3747 199.026 33.5164 200.092 33.5164C201.158 33.5164 202.02 34.3747 202.02 35.437V36.0427C202.578 34.7293 203.491 33.5164 204.635 33.5164C205.826 33.5164 206.511 34.2994 206.511 35.3868C206.511 36.3973 205.851 37.0045 205.065 37.1818C203.111 37.6383 202.02 39.1291 202.02 41.8593V45.4494C202.02 46.5117 201.158 47.3716 200.092 47.3716C199.581 47.3723 199.092 47.1705 198.73 46.8103C198.369 46.4502 198.165 45.9612 198.164 45.4509V35.437ZM207.678 30.532C207.678 29.4682 208.541 28.6113 209.606 28.6113C210.673 28.6113 211.536 29.4682 211.536 30.532V45.4494C211.536 46.5117 210.673 47.3716 209.606 47.3716C209.096 47.3723 208.606 47.1705 208.245 46.8103C207.883 46.4502 207.679 45.9612 207.678 45.4509V30.5305V30.532ZM214.606 50.9868C214.047 50.7859 213.387 50.3293 213.387 49.3956C213.383 49.1922 213.419 48.99 213.493 48.8007C213.568 48.6114 213.679 48.4388 213.821 48.2928C213.962 48.1468 214.132 48.0305 214.319 47.9504C214.506 47.8704 214.707 47.8283 214.91 47.8266C215.214 47.8266 215.392 47.8768 215.544 47.9285C215.873 48.029 216.077 48.0807 216.357 48.0807C217.041 48.0807 217.372 47.9537 217.726 47.2711L217.853 46.9667L213.211 36.2466C213.095 35.9643 213.026 35.6648 213.007 35.3602C213.007 34.2743 213.845 33.5164 214.91 33.5164C215.873 33.5164 216.432 34.0467 216.761 34.9568L219.706 42.8462L222.547 34.9819C222.851 34.1738 223.408 33.5164 224.4 33.5164C225.388 33.5164 226.224 34.2743 226.224 35.2863C226.224 35.5892 226.124 36.0191 226.048 36.1964L221.303 47.5489C220.161 50.3042 219.02 51.3414 216.711 51.3414C215.848 51.3414 215.24 51.2158 214.606 50.9868Z" fill="#4C4C4C"/>
<path fill-rule="evenodd" clip-rule="evenodd" d="M89.1448 40.4277C89.1448 52.0255 79.71 61.4277 68.0724 61.4277C56.4348 61.4277 47 52.0255 47 40.4277C47 28.83 56.4348 19.4277 68.0724 19.4277C79.71 19.4277 89.1448 28.83 89.1448 40.4277Z" fill="#15C39A"/>
<path fill-rule="evenodd" clip-rule="evenodd" d="M70.8267 44.9635C70.9508 45.6505 71.5994 46.1218 72.3011 46.1218H74.5084L75.7879 45.9445C73.7402 48.9377 70.1855 50.3147 66.2984 49.7075C63.1338 49.2125 60.4153 47.0777 59.2674 44.0977C56.6642 37.3326 61.6209 30.8748 68.0816 30.8748C71.4487 30.8748 74.4006 32.8383 76.0937 35.2096C76.5428 35.8552 77.4352 36.0916 78.0838 35.6439C78.3784 35.4444 78.5862 35.1404 78.6652 34.7934C78.7442 34.4464 78.6885 34.0824 78.5093 33.775C77.3093 31.9062 75.6285 30.3948 73.6433 29.3992C71.6581 28.4036 69.4416 27.9606 67.2262 28.1165C61.0654 28.5287 56.0791 33.5534 55.7245 39.6965C55.3138 46.8472 61.0033 52.683 68.0816 52.683C69.8465 52.6903 71.5922 52.3167 73.1996 51.5877C74.8069 50.8588 76.238 49.7916 77.3953 48.459L77.1264 49.9571V51.3104C77.1264 52.0078 77.5992 52.6549 78.2891 52.779C78.4951 52.8178 78.7071 52.8108 78.9101 52.7585C79.1131 52.7062 79.3021 52.6099 79.4636 52.4763C79.6252 52.3428 79.7554 52.1754 79.8451 51.9859C79.9347 51.7964 79.9815 51.5895 79.9822 51.3799V43.2748H72.2302C72.0205 43.2744 71.8133 43.3204 71.6234 43.4093C71.4335 43.4982 71.2655 43.6279 71.1315 43.7892C70.9975 43.9505 70.9006 44.1393 70.848 44.3423C70.7953 44.5453 70.788 44.7574 70.8267 44.9635Z" fill="white"/>
</svg>
