<svg width="274" height="80" viewBox="0 0 274 80" fill="none" xmlns="http://www.w3.org/2000/svg">
<g clip-path="url(#clip0_242_9197)">
<path d="M140.547 30.05C140.547 31.4915 139.386 32.6527 137.944 32.6527C136.503 32.6527 135.342 31.4915 135.342 30.05C135.342 28.6086 136.463 27.4474 137.944 27.4474C139.426 27.4875 140.547 28.6486 140.547 30.05ZM129.816 35.2953C129.816 35.5355 129.816 35.9359 129.816 35.9359C129.816 35.9359 128.575 34.3343 125.932 34.3343C121.568 34.3343 118.165 37.6577 118.165 42.2623C118.165 46.8268 121.528 50.1902 125.932 50.1902C128.615 50.1902 129.816 48.5485 129.816 48.5485V49.2292C129.816 49.5495 130.056 49.7898 130.377 49.7898H133.62V34.7347C133.62 34.7347 130.657 34.7347 130.377 34.7347C130.056 34.7347 129.816 35.015 129.816 35.2953ZM129.816 44.9449C129.216 45.8258 128.014 46.5866 126.573 46.5866C124.01 46.5866 122.048 44.985 122.048 42.2623C122.048 39.5395 124.01 37.9379 126.573 37.9379C127.974 37.9379 129.256 38.7387 129.816 39.5796V44.9449ZM136.022 34.7347H139.866V49.7898H136.022V34.7347ZM193.44 34.3343C190.797 34.3343 189.556 35.9359 189.556 35.9359V27.4875H185.712V49.7898C185.712 49.7898 188.675 49.7898 188.955 49.7898C189.276 49.7898 189.516 49.5095 189.516 49.2292V48.5485C189.516 48.5485 190.757 50.1902 193.4 50.1902C197.764 50.1902 201.168 46.8268 201.168 42.2623C201.168 37.6977 197.764 34.3343 193.44 34.3343ZM192.799 46.5465C191.318 46.5465 190.157 45.7858 189.556 44.9049V39.5395C190.157 38.7387 191.438 37.8979 192.799 37.8979C195.362 37.8979 197.324 39.4995 197.324 42.2222C197.324 44.9449 195.362 46.5465 192.799 46.5465ZM183.71 40.8609V49.8298H179.866V41.3013C179.866 38.8188 179.065 37.8178 176.903 37.8178C175.742 37.8178 174.541 38.4184 173.78 39.2993V49.7898H169.936V34.7347H172.979C173.3 34.7347 173.54 35.015 173.54 35.2953V35.9359C174.661 34.7748 176.143 34.3343 177.624 34.3343C179.306 34.3343 180.707 34.8148 181.828 35.7758C183.19 36.8969 183.71 38.3383 183.71 40.8609ZM160.607 34.3343C157.964 34.3343 156.723 35.9359 156.723 35.9359V27.4875H152.879V49.7898C152.879 49.7898 155.842 49.7898 156.123 49.7898C156.443 49.7898 156.683 49.5095 156.683 49.2292V48.5485C156.683 48.5485 157.924 50.1902 160.567 50.1902C164.931 50.1902 168.335 46.8268 168.335 42.2623C168.375 37.6977 164.971 34.3343 160.607 34.3343ZM159.966 46.5465C158.485 46.5465 157.324 45.7858 156.723 44.9049V39.5395C157.324 38.7387 158.605 37.8979 159.966 37.8979C162.529 37.8979 164.491 39.4995 164.491 42.2222C164.491 44.9449 162.529 46.5465 159.966 46.5465ZM149.556 34.3343C150.717 34.3343 151.318 34.5345 151.318 34.5345V38.0981C151.318 38.0981 148.115 37.017 146.113 39.2993V49.8298H142.269V34.7347C142.269 34.7347 145.232 34.7347 145.512 34.7347C145.832 34.7347 146.072 35.015 146.072 35.2953V35.9359C146.793 35.0951 148.355 34.3343 149.556 34.3343ZM109.636 48.4284C109.436 47.9479 109.236 47.4274 109.035 46.987C108.715 46.2663 108.395 45.5856 108.115 44.9449L108.074 44.9049C105.312 38.8989 102.349 32.8128 99.2257 26.8068L99.1055 26.5666C98.7852 25.966 98.4649 25.3253 98.1446 24.6847C97.7442 23.964 97.3438 23.2032 96.7031 22.4825C95.4218 20.8809 93.58 20 91.618 20C89.616 20 87.8142 20.8809 86.4929 22.4024C85.8923 23.1231 85.4519 23.8839 85.0515 24.6046C84.7312 25.2452 84.4108 25.8859 84.0905 26.4865L83.9704 26.7267C80.8873 32.7327 77.8843 38.8188 75.1216 44.8248L75.0815 44.9049C74.8012 45.5455 74.4809 46.2262 74.1606 46.9469C73.9604 47.3874 73.7602 47.8679 73.56 48.3884C73.0395 49.8699 72.8793 51.2713 73.0795 52.7127C73.52 55.7157 75.522 58.2382 78.2847 59.3594C79.3258 59.7998 80.4068 60 81.528 60C81.8483 60 82.2487 59.96 82.569 59.9199C83.8903 59.7598 85.2517 59.3193 86.573 58.5586C88.2146 57.6376 89.7762 56.3163 91.538 54.3944C93.2997 56.3163 94.9013 57.6376 96.5029 58.5586C97.8243 59.3193 99.1856 59.7598 100.507 59.9199C100.827 59.96 101.228 60 101.548 60C102.669 60 103.79 59.7998 104.791 59.3594C107.594 58.2382 109.556 55.6757 109.996 52.7127C110.317 51.3113 110.157 49.9099 109.636 48.4284ZM91.578 50.5105C89.4158 47.7878 88.0144 45.2252 87.534 43.0631C87.3338 42.1421 87.2937 41.3413 87.4138 40.6206C87.4939 39.98 87.7342 39.4194 88.0545 38.9389C88.8152 37.8579 90.0965 37.1772 91.578 37.1772C93.0595 37.1772 94.3808 37.8178 95.1015 38.9389C95.4218 39.4194 95.6621 39.98 95.7422 40.6206C95.8623 41.3413 95.8222 42.1822 95.622 43.0631C95.1416 45.1852 93.7402 47.7477 91.578 50.5105ZM107.554 52.3924C107.274 54.4745 105.872 56.2763 103.91 57.0771C102.949 57.4775 101.908 57.5976 100.867 57.4775C99.8663 57.3574 98.8653 57.037 97.8243 56.4364C96.3828 55.6356 94.9414 54.3944 93.2597 52.5526C95.9023 49.3093 97.5039 46.3463 98.1045 43.7037C98.3848 42.4625 98.4249 41.3413 98.3047 40.3003C98.1446 39.2993 97.7842 38.3784 97.2236 37.5776C95.9824 35.7758 93.9003 34.7347 91.578 34.7347C89.2557 34.7347 87.1736 35.8158 85.9324 37.5776C85.3718 38.3784 85.0114 39.2993 84.8513 40.3003C84.6911 41.3413 84.7312 42.5025 85.0515 43.7037C85.6521 46.3463 87.2937 49.3493 89.8963 52.5926C88.2547 54.4344 86.7732 55.6757 85.3318 56.4765C84.2907 57.0771 83.2897 57.3974 82.2887 57.5175C81.2076 57.6376 80.1666 57.4775 79.2457 57.1171C77.2837 56.3163 75.8823 54.5145 75.602 52.4324C75.4819 51.4314 75.562 50.4304 75.9624 49.3093C76.0825 48.9089 76.2827 48.5085 76.4829 48.028C76.7632 47.3874 77.0835 46.7067 77.4038 46.026L77.4439 45.9459C80.2066 39.98 83.1696 33.8939 86.2527 27.968L86.3728 27.7277C86.6931 27.1271 87.0134 26.4865 87.3338 25.8859C87.6541 25.2452 88.0144 24.6446 88.4549 24.1241C89.2957 23.1632 90.4168 22.6426 91.6581 22.6426C92.8993 22.6426 94.0204 23.1632 94.8613 24.1241C95.3017 24.6446 95.6621 25.2452 95.9824 25.8859C96.3027 26.4865 96.623 27.1271 96.9434 27.7277L97.0635 27.968C100.107 33.9339 103.069 40.02 105.832 45.986V46.026C106.153 46.6667 106.433 47.3874 106.753 48.028C106.953 48.5085 107.154 48.9089 107.274 49.3093C107.594 50.3503 107.714 51.3514 107.554 52.3924Z" fill="#FF5A5F"/>
</g>
<defs>
<clipPath id="clip0_242_9197">
<rect width="128" height="48" fill="white" transform="translate(73 16)"/>
</clipPath>
</defs>
</svg>
