<svg width="72" height="72" viewBox="0 0 72 72" fill="none" xmlns="http://www.w3.org/2000/svg">
<path d="M54 15H18C14.6863 15 12 17.6863 12 21V57C12 60.3137 14.6863 63 18 63H54C57.3137 63 60 60.3137 60 57V21C60 17.6863 57.3137 15 54 15Z" stroke="#116273" stroke-width="4.5" stroke-linecap="round" stroke-linejoin="round"/>
<path d="M54 15H18C14.6863 15 12 17.6863 12 21V57C12 60.3137 14.6863 63 18 63H54C57.3137 63 60 60.3137 60 57V21C60 17.6863 57.3137 15 54 15Z" stroke="black" stroke-opacity="0.2" stroke-width="4.5" stroke-linecap="round" stroke-linejoin="round"/>
<path d="M48 9V21" stroke="#116273" stroke-width="4.5" stroke-linecap="round" stroke-linejoin="round"/>
<path d="M48 9V21" stroke="black" stroke-opacity="0.2" stroke-width="4.5" stroke-linecap="round" stroke-linejoin="round"/>
<path d="M24 9V21" stroke="#116273" stroke-width="4.5" stroke-linecap="round" stroke-linejoin="round"/>
<path d="M24 9V21" stroke="black" stroke-opacity="0.2" stroke-width="4.5" stroke-linecap="round" stroke-linejoin="round"/>
<path d="M12 33H60" stroke="#116273" stroke-width="4.5" stroke-linecap="round" stroke-linejoin="round"/>
<path d="M12 33H60" stroke="black" stroke-opacity="0.2" stroke-width="4.5" stroke-linecap="round" stroke-linejoin="round"/>
<path d="M30 45H24V51H30V45Z" stroke="#116273" stroke-width="4.5" stroke-linecap="round" stroke-linejoin="round"/>
<path d="M30 45H24V51H30V45Z" stroke="black" stroke-opacity="0.2" stroke-width="4.5" stroke-linecap="round" stroke-linejoin="round"/>
</svg>
