<svg width="72" height="72" viewBox="0 0 72 72" fill="none" xmlns="http://www.w3.org/2000/svg">
<path d="M17.793 20.8081L21.618 33.5551M38.439 50.3821L51.192 54.2071" stroke="#116273" stroke-width="4.5" stroke-linecap="round" stroke-linejoin="round"/>
<path d="M17.793 20.8081L21.618 33.5551M38.439 50.3821L51.192 54.2071" stroke="black" stroke-opacity="0.2" stroke-width="4.5" stroke-linecap="round" stroke-linejoin="round"/>
<path d="M35.0488 36.9511L52.3258 19.6741" stroke="#116273" stroke-width="4.5" stroke-linecap="round" stroke-linejoin="round"/>
<path d="M35.0488 36.9511L52.3258 19.6741" stroke="black" stroke-opacity="0.2" stroke-width="4.5" stroke-linecap="round" stroke-linejoin="round"/>
<path d="M16.5 21C18.9853 21 21 18.9853 21 16.5C21 14.0147 18.9853 12 16.5 12C14.0147 12 12 14.0147 12 16.5C12 18.9853 14.0147 21 16.5 21Z" stroke="#116273" stroke-width="4.5" stroke-linecap="round" stroke-linejoin="round"/>
<path d="M16.5 21C18.9853 21 21 18.9853 21 16.5C21 14.0147 18.9853 12 16.5 12C14.0147 12 12 14.0147 12 16.5C12 18.9853 14.0147 21 16.5 21Z" stroke="black" stroke-opacity="0.2" stroke-width="4.5" stroke-linecap="round" stroke-linejoin="round"/>
<path d="M55.5 21C57.9853 21 60 18.9853 60 16.5C60 14.0147 57.9853 12 55.5 12C53.0147 12 51 14.0147 51 16.5C51 18.9853 53.0147 21 55.5 21Z" stroke="#116273" stroke-width="4.5" stroke-linecap="round" stroke-linejoin="round"/>
<path d="M55.5 21C57.9853 21 60 18.9853 60 16.5C60 14.0147 57.9853 12 55.5 12C53.0147 12 51 14.0147 51 16.5C51 18.9853 53.0147 21 55.5 21Z" stroke="black" stroke-opacity="0.2" stroke-width="4.5" stroke-linecap="round" stroke-linejoin="round"/>
<path d="M55.5 60C57.9853 60 60 57.9853 60 55.5C60 53.0147 57.9853 51 55.5 51C53.0147 51 51 53.0147 51 55.5C51 57.9853 53.0147 60 55.5 60Z" stroke="#116273" stroke-width="4.5" stroke-linecap="round" stroke-linejoin="round"/>
<path d="M55.5 60C57.9853 60 60 57.9853 60 55.5C60 53.0147 57.9853 51 55.5 51C53.0147 51 51 53.0147 51 55.5C51 57.9853 53.0147 60 55.5 60Z" stroke="black" stroke-opacity="0.2" stroke-width="4.5" stroke-linecap="round" stroke-linejoin="round"/>
<path d="M25.5 60C32.9558 60 39 53.9558 39 46.5C39 39.0442 32.9558 33 25.5 33C18.0442 33 12 39.0442 12 46.5C12 53.9558 18.0442 60 25.5 60Z" stroke="#116273" stroke-width="4.5" stroke-linecap="round" stroke-linejoin="round"/>
<path d="M25.5 60C32.9558 60 39 53.9558 39 46.5C39 39.0442 32.9558 33 25.5 33C18.0442 33 12 39.0442 12 46.5C12 53.9558 18.0442 60 25.5 60Z" stroke="black" stroke-opacity="0.2" stroke-width="4.5" stroke-linecap="round" stroke-linejoin="round"/>
</svg>
