<svg width="72" height="72" viewBox="0 0 72 72" fill="none" xmlns="http://www.w3.org/2000/svg">
<path d="M12 15H18" stroke="#116273" stroke-width="4.5" stroke-linecap="round" stroke-linejoin="round"/>
<path d="M12 15H18" stroke="black" stroke-opacity="0.2" stroke-width="4.5" stroke-linecap="round" stroke-linejoin="round"/>
<path d="M15 12V18" stroke="#116273" stroke-width="4.5" stroke-linecap="round" stroke-linejoin="round"/>
<path d="M15 12V18" stroke="black" stroke-opacity="0.2" stroke-width="4.5" stroke-linecap="round" stroke-linejoin="round"/>
<path d="M34.5 12L33 18" stroke="#116273" stroke-width="4.5" stroke-linecap="round" stroke-linejoin="round"/>
<path d="M34.5 12L33 18" stroke="black" stroke-opacity="0.2" stroke-width="4.5" stroke-linecap="round" stroke-linejoin="round"/>
<path d="M54 15H60" stroke="#116273" stroke-width="4.5" stroke-linecap="round" stroke-linejoin="round"/>
<path d="M54 15H60" stroke="black" stroke-opacity="0.2" stroke-width="4.5" stroke-linecap="round" stroke-linejoin="round"/>
<path d="M57 12V18" stroke="#116273" stroke-width="4.5" stroke-linecap="round" stroke-linejoin="round"/>
<path d="M57 12V18" stroke="black" stroke-opacity="0.2" stroke-width="4.5" stroke-linecap="round" stroke-linejoin="round"/>
<path d="M45 27L42 30" stroke="#116273" stroke-width="4.5" stroke-linecap="round" stroke-linejoin="round"/>
<path d="M45 27L42 30" stroke="black" stroke-opacity="0.2" stroke-width="4.5" stroke-linecap="round" stroke-linejoin="round"/>
<path d="M54 39L60 37.5" stroke="#116273" stroke-width="4.5" stroke-linecap="round" stroke-linejoin="round"/>
<path d="M54 39L60 37.5" stroke="black" stroke-opacity="0.2" stroke-width="4.5" stroke-linecap="round" stroke-linejoin="round"/>
<path d="M54 57H60" stroke="#116273" stroke-width="4.5" stroke-linecap="round" stroke-linejoin="round"/>
<path d="M54 57H60" stroke="black" stroke-opacity="0.2" stroke-width="4.5" stroke-linecap="round" stroke-linejoin="round"/>
<path d="M57 54V60" stroke="#116273" stroke-width="4.5" stroke-linecap="round" stroke-linejoin="round"/>
<path d="M57 54V60" stroke="black" stroke-opacity="0.2" stroke-width="4.5" stroke-linecap="round" stroke-linejoin="round"/>
<path d="M41.9998 49.554L22.4458 30L9.27577 58.74C9.02097 59.298 8.9428 59.9205 9.05173 60.5242C9.16066 61.1278 9.45148 61.6838 9.88522 62.1175C10.319 62.5513 10.8749 62.8421 11.4786 62.951C12.0822 63.06 12.7048 62.9818 13.2628 62.727L41.9998 49.557V49.554Z" stroke="#116273" stroke-width="4.5" stroke-linecap="round" stroke-linejoin="round"/>
<path d="M41.9998 49.554L22.4458 30L9.27577 58.74C9.02097 59.298 8.9428 59.9205 9.05173 60.5242C9.16066 61.1278 9.45148 61.6838 9.88522 62.1175C10.319 62.5513 10.8749 62.8421 11.4786 62.951C12.0822 63.06 12.7048 62.9818 13.2628 62.727L41.9998 49.557V49.554Z" stroke="black" stroke-opacity="0.2" stroke-width="4.5" stroke-linecap="round" stroke-linejoin="round"/>
</svg>
