<svg width="274" height="80" viewBox="0 0 274 80" fill="none" xmlns="http://www.w3.org/2000/svg">
<path fill-rule="evenodd" clip-rule="evenodd" d="M72.6605 45.9929L65.97 39.2716C64.8331 38.1295 62.9899 38.1295 61.8526 39.2716C60.7158 40.4137 60.7158 42.2653 61.8526 43.4077L70.6018 52.1972C71.7387 53.3392 73.5824 53.3392 74.7192 52.1972L82.9542 43.924L78.8372 39.7878L72.6605 45.9929Z" fill="#16B8A2"/>
<path fill-rule="evenodd" clip-rule="evenodd" d="M97.879 33.0673L85.0136 45.9917L72.1467 33.0658C71.0095 31.9234 69.1663 31.9234 68.0294 33.0658C66.8925 34.2079 66.8925 36.0596 68.0294 37.202L82.9549 52.196C84.0918 53.3382 85.9351 53.3382 87.0722 52.196L101.996 37.2035C103.133 36.061 103.133 34.2094 101.996 33.0673C100.859 31.9252 99.0158 31.9252 97.879 33.0673Z" fill="#FFB41F"/>
<path fill-rule="evenodd" clip-rule="evenodd" d="M108.173 43.4087L99.4248 52.1966C98.288 53.3387 96.4448 53.3387 95.3079 52.1966L74.2057 30.9976C73.0688 29.8555 73.0688 28.0038 74.2057 26.8617C75.3429 25.7193 77.1861 25.7193 78.3229 26.8617L97.3662 45.9923L104.055 39.2725C105.192 38.1305 107.036 38.1305 108.173 39.2725C109.309 40.415 109.309 42.2667 108.173 43.4087Z" fill="#F56358"/>
<path fill-rule="evenodd" clip-rule="evenodd" d="M95.8196 26.8634C94.6827 25.7213 92.8396 25.7213 91.7023 26.8634L78.8369 39.7879L82.9543 43.9241L95.8196 30.9996C96.9566 29.8572 96.9566 28.0055 95.8196 26.8634Z" fill="#16B8A2"/>
<path fill-rule="evenodd" clip-rule="evenodd" d="M124.097 28.8826H120.517V50.0093H133.634V46.8188H124.097V28.8826ZM141.383 35.235C143.559 35.235 145.02 36.126 145.822 37.2183L145.994 35.5224H149.087V50.0093H145.994L145.822 48.3135C145.02 49.4057 143.559 50.2968 141.383 50.2968C137.459 50.2968 134.795 47.1062 134.795 42.7658C134.795 38.3968 137.459 35.235 141.383 35.235ZM142.127 38.2818C139.893 38.2818 138.289 40.0352 138.289 42.7658C138.289 45.4966 139.893 47.25 142.127 47.25C143.846 47.25 144.877 46.3301 145.65 45.0941V40.4376C144.877 39.2017 143.846 38.2818 142.127 38.2818ZM157.752 30.6647H154.315V35.5224H151.594V38.4543H154.315V44.893C154.315 48.3997 156.406 50.2968 159.7 50.2968C161.132 50.2968 162.191 49.8944 162.907 49.4345L161.991 46.7326C161.561 46.9913 160.931 47.1924 160.015 47.1924C158.668 47.1924 157.752 46.3301 157.752 44.8641V38.4543H162.105V35.5224H157.752V30.6647ZM169.596 30.6647H166.159V35.5224H163.438V38.4543H166.159V44.893C166.159 48.3997 168.25 50.2968 171.544 50.2968C172.976 50.2968 174.035 49.8944 174.751 49.4345L173.835 46.7326C173.405 46.9913 172.775 47.1924 171.859 47.1924C170.512 47.1924 169.596 46.3301 169.596 44.8641V38.4543H173.95V35.5224H169.596V30.6647ZM180.495 35.5224H177.058V50.0093H180.495V35.5224ZM178.776 28.7676C177.573 28.7676 176.657 29.6586 176.657 30.8946C176.657 32.1306 177.573 33.0217 178.776 33.0217C180.008 33.0217 180.924 32.1306 180.924 30.8946C180.924 29.6586 180.008 28.7676 178.776 28.7676ZM190.879 35.235C186.439 35.235 183.489 38.3968 183.489 42.7658C183.489 47.1062 186.468 50.2968 190.907 50.2968C193.513 50.2968 195.489 49.1183 196.778 47.1062L194.315 45.1804C193.627 46.3301 192.511 47.2787 190.936 47.2787C188.387 47.2787 186.983 45.2953 186.983 42.7658C186.983 40.2076 188.329 38.2531 190.907 38.2531C192.511 38.2531 193.57 39.1728 194.229 40.3227L196.721 38.4256C195.432 36.4135 193.513 35.235 190.879 35.235ZM205.185 35.235C209.625 35.235 211.802 38.5693 211.802 42.6222V43.8294H201.605C201.691 46.1289 203.066 47.3936 205.471 47.3936C207.161 47.3936 208.393 46.6463 209.052 45.7265L211.429 47.6811C209.996 49.4057 208.107 50.2968 205.443 50.2968C200.976 50.2968 198.111 47.1349 198.111 42.7946C198.111 38.4256 201.033 35.235 205.185 35.235ZM205.128 37.9944C203.095 37.9944 201.719 39.3453 201.605 41.3574H208.422C208.336 39.3741 207.19 37.9944 205.128 37.9944Z" fill="#0E0E29"/>
</svg>
