<svg width="225" height="38" viewBox="0 0 225 38" fill="none" xmlns="http://www.w3.org/2000/svg">
<g clip-path="url(#clip0_288_1796)">
<rect y="12" width="224" height="20" fill="#FED72F"/>
<path d="M31.6985 28.205C32.4905 28.205 33.1395 28.1115 33.6455 27.9245C34.1625 27.7265 34.575 27.468 34.883 27.149C35.191 26.83 35.4055 26.467 35.5265 26.06C35.6475 25.642 35.708 25.213 35.708 24.773C35.708 24.289 35.6365 23.8545 35.4935 23.4695C35.3505 23.0845 35.1195 22.76 34.8005 22.496C34.4815 22.221 34.0635 22.012 33.5465 21.869C33.0405 21.726 32.4135 21.6545 31.6655 21.6545H27.458V28.205H31.6985ZM27.458 11.8205V18.2885H30.7085C31.4015 18.2885 32.0175 18.2335 32.5565 18.1235C33.0955 18.0025 33.5465 17.8155 33.9095 17.5625C34.2725 17.3095 34.5475 16.9795 34.7345 16.5725C34.9325 16.1545 35.0315 15.654 35.0315 15.071C35.0315 14.477 34.949 13.971 34.784 13.553C34.63 13.135 34.388 12.7995 34.058 12.5465C33.728 12.2935 33.31 12.112 32.804 12.002C32.298 11.881 31.6985 11.8205 31.0055 11.8205H27.458ZM31.0055 8.0585C32.6115 8.0585 33.981 8.2125 35.114 8.5205C36.258 8.8175 37.1875 9.2465 37.9025 9.8075C38.6285 10.3575 39.1565 11.0285 39.4865 11.8205C39.8165 12.6125 39.9815 13.498 39.9815 14.477C39.9815 15.027 39.899 15.555 39.734 16.061C39.58 16.567 39.3325 17.0455 38.9915 17.4965C38.6615 17.9365 38.2325 18.338 37.7045 18.701C37.1765 19.064 36.5495 19.372 35.8235 19.625C37.4515 20.01 38.656 20.637 39.437 21.506C40.218 22.375 40.6085 23.5025 40.6085 24.8885C40.6085 25.9005 40.4105 26.841 40.0145 27.71C39.6295 28.579 39.063 29.3325 38.315 29.9705C37.567 30.6085 36.643 31.109 35.543 31.472C34.454 31.824 33.2 32 31.781 32H22.508V8.0585H31.0055ZM51.2098 14.7245C52.4858 14.7245 53.6463 14.928 54.6913 15.335C55.7363 15.742 56.6328 16.325 57.3808 17.084C58.1288 17.832 58.7063 18.745 59.1133 19.823C59.5203 20.901 59.7238 22.1165 59.7238 23.4695C59.7238 24.8225 59.5203 26.0435 59.1133 27.1325C58.7063 28.2105 58.1288 29.129 57.3808 29.888C56.6328 30.647 55.7363 31.23 54.6913 31.637C53.6463 32.044 52.4858 32.2475 51.2098 32.2475C49.9228 32.2475 48.7513 32.044 47.6953 31.637C46.6503 31.23 45.7538 30.647 45.0058 29.888C44.2578 29.129 43.6748 28.2105 43.2568 27.1325C42.8498 26.0435 42.6463 24.8225 42.6463 23.4695C42.6463 22.1165 42.8498 20.901 43.2568 19.823C43.6748 18.745 44.2578 17.832 45.0058 17.084C45.7538 16.325 46.6503 15.742 47.6953 15.335C48.7513 14.928 49.9228 14.7245 51.2098 14.7245ZM51.2098 28.832C52.5078 28.832 53.4703 28.3865 54.0973 27.4955C54.7243 26.5935 55.0378 25.257 55.0378 23.486C55.0378 21.726 54.7243 20.4005 54.0973 19.5095C53.4703 18.6075 52.5078 18.1565 51.2098 18.1565C49.8788 18.1565 48.8998 18.6075 48.2728 19.5095C47.6458 20.4005 47.3323 21.726 47.3323 23.486C47.3323 25.257 47.6458 26.5935 48.2728 27.4955C48.8998 28.3865 49.8788 28.832 51.2098 28.832ZM67.1701 7.3985V32H62.6161V7.3985H67.1701ZM81.4726 19.4105C81.0436 18.9155 80.5761 18.569 80.0701 18.371C79.5751 18.173 79.0471 18.074 78.4861 18.074C77.9361 18.074 77.4356 18.1785 76.9846 18.3875C76.5336 18.5965 76.1431 18.9265 75.8131 19.3775C75.4941 19.8175 75.2466 20.384 75.0706 21.077C74.8946 21.77 74.8066 22.595 74.8066 23.552C74.8066 24.498 74.8781 25.301 75.0211 25.961C75.1641 26.621 75.3676 27.1545 75.6316 27.5615C75.9066 27.9685 76.2366 28.2655 76.6216 28.4525C77.0066 28.6285 77.4356 28.7165 77.9086 28.7165C78.7116 28.7165 79.3826 28.557 79.9216 28.238C80.4716 27.919 80.9886 27.468 81.4726 26.885V19.4105ZM86.0266 7.3985V32H83.2216C82.6386 32 82.2646 31.736 82.0996 31.208L81.7201 29.723C81.3791 30.097 81.0161 30.438 80.6311 30.746C80.2571 31.054 79.8501 31.3235 79.4101 31.5545C78.9701 31.7745 78.4971 31.945 77.9911 32.066C77.4851 32.187 76.9351 32.2475 76.3411 32.2475C75.4281 32.2475 74.5921 32.055 73.8331 31.67C73.0741 31.285 72.4141 30.724 71.8531 29.987C71.3031 29.239 70.8741 28.326 70.5661 27.248C70.2581 26.17 70.1041 24.938 70.1041 23.552C70.1041 22.287 70.2746 21.11 70.6156 20.021C70.9676 18.932 71.4626 17.9915 72.1006 17.1995C72.7386 16.4075 73.5086 15.786 74.4106 15.335C75.3126 14.884 76.3136 14.6585 77.4136 14.6585C78.3376 14.6585 79.1131 14.796 79.7401 15.071C80.3781 15.346 80.9556 15.72 81.4726 16.193V7.3985H86.0266ZM109.784 22.9085L107.193 15.5825C107.039 15.1975 106.874 14.7465 106.698 14.2295C106.533 13.7125 106.374 13.1515 106.22 12.5465C106.066 13.1625 105.901 13.7345 105.725 14.2625C105.56 14.7795 105.4 15.2305 105.246 15.6155L102.672 22.9085H109.784ZM118.1 32H114.255C113.826 32 113.474 31.901 113.199 31.703C112.935 31.494 112.737 31.23 112.605 30.911L110.988 26.3405H101.451L99.8342 30.911C99.7242 31.186 99.5317 31.439 99.2567 31.67C98.9817 31.89 98.6352 32 98.2172 32H94.3397L103.695 8.0585H108.761L118.1 32ZM126.025 22.859C126.96 22.859 127.647 22.6225 128.087 22.1495C128.538 21.6765 128.764 21.066 128.764 20.318C128.764 19.537 128.538 18.9265 128.087 18.4865C127.647 18.0355 126.96 17.81 126.025 17.81C125.09 17.81 124.402 18.0355 123.962 18.4865C123.522 18.9265 123.302 19.537 123.302 20.318C123.302 21.055 123.522 21.6655 123.962 22.1495C124.413 22.6225 125.101 22.859 126.025 22.859ZM130.331 32.693C130.331 32.396 130.238 32.154 130.051 31.967C129.864 31.78 129.611 31.6315 129.292 31.5215C128.984 31.4115 128.615 31.3345 128.186 31.2905C127.757 31.2355 127.301 31.197 126.817 31.175C126.333 31.142 125.832 31.1145 125.315 31.0925C124.798 31.0705 124.292 31.032 123.797 30.977C123.412 31.208 123.093 31.483 122.84 31.802C122.598 32.11 122.477 32.462 122.477 32.858C122.477 33.133 122.538 33.386 122.659 33.617C122.791 33.848 123.005 34.046 123.302 34.211C123.599 34.376 123.99 34.5025 124.474 34.5905C124.958 34.6895 125.563 34.739 126.289 34.739C127.037 34.739 127.669 34.6895 128.186 34.5905C128.703 34.4915 129.121 34.3485 129.44 34.1615C129.759 33.9855 129.985 33.771 130.117 33.518C130.26 33.265 130.331 32.99 130.331 32.693ZM134.852 15.5495V17.216C134.852 17.48 134.775 17.689 134.621 17.843C134.478 17.997 134.236 18.1125 133.895 18.1895L132.509 18.47C132.696 19.009 132.79 19.5865 132.79 20.2025C132.79 21.0495 132.614 21.814 132.262 22.496C131.921 23.167 131.448 23.7445 130.843 24.2285C130.238 24.7015 129.523 25.07 128.698 25.334C127.873 25.587 126.982 25.7135 126.025 25.7135C125.42 25.7135 124.853 25.664 124.325 25.565C123.863 25.851 123.632 26.1645 123.632 26.5055C123.632 26.8245 123.786 27.0555 124.094 27.1985C124.413 27.3415 124.826 27.446 125.332 27.512C125.849 27.567 126.432 27.6055 127.081 27.6275C127.741 27.6385 128.406 27.6715 129.077 27.7265C129.759 27.7815 130.425 27.8805 131.074 28.0235C131.734 28.1555 132.317 28.381 132.823 28.7C133.34 29.008 133.752 29.4205 134.06 29.9375C134.379 30.4545 134.539 31.12 134.539 31.934C134.539 32.693 134.352 33.43 133.978 34.145C133.604 34.86 133.059 35.498 132.344 36.059C131.64 36.62 130.771 37.071 129.737 37.412C128.703 37.753 127.526 37.9235 126.206 37.9235C124.897 37.9235 123.759 37.797 122.791 37.544C121.834 37.302 121.036 36.972 120.398 36.554C119.771 36.147 119.304 35.674 118.996 35.135C118.688 34.596 118.534 34.035 118.534 33.452C118.534 32.693 118.765 32.0495 119.227 31.5215C119.689 30.9935 120.327 30.57 121.141 30.251C120.712 30.009 120.365 29.6955 120.101 29.3105C119.848 28.9145 119.722 28.403 119.722 27.776C119.722 27.27 119.903 26.7365 120.266 26.1755C120.64 25.6145 121.212 25.147 121.982 24.773C121.113 24.311 120.426 23.695 119.92 22.925C119.414 22.144 119.161 21.2365 119.161 20.2025C119.161 19.3555 119.331 18.591 119.672 17.909C120.024 17.227 120.508 16.6495 121.124 16.1765C121.74 15.6925 122.466 15.324 123.302 15.071C124.138 14.818 125.046 14.6915 126.025 14.6915C127.477 14.6915 128.758 14.9775 129.869 15.5495H134.852ZM147.689 21.4895C147.689 21.0165 147.623 20.5655 147.491 20.1365C147.37 19.7075 147.172 19.328 146.897 18.998C146.622 18.668 146.275 18.4095 145.857 18.2225C145.439 18.0245 144.939 17.9255 144.356 17.9255C143.267 17.9255 142.414 18.2335 141.798 18.8495C141.182 19.4655 140.781 20.3455 140.594 21.4895H147.689ZM140.528 24.1955C140.671 25.7905 141.122 26.9565 141.881 27.6935C142.651 28.4305 143.652 28.799 144.884 28.799C145.511 28.799 146.05 28.7275 146.501 28.5845C146.963 28.4305 147.364 28.2655 147.705 28.0895C148.057 27.9025 148.371 27.7375 148.646 27.5945C148.932 27.4405 149.212 27.3635 149.487 27.3635C149.839 27.3635 150.114 27.4955 150.312 27.7595L151.632 29.4095C151.148 29.9705 150.615 30.438 150.032 30.812C149.449 31.175 148.844 31.4665 148.217 31.6865C147.59 31.8955 146.957 32.0385 146.319 32.1155C145.681 32.2035 145.065 32.2475 144.471 32.2475C143.283 32.2475 142.172 32.055 141.138 31.67C140.115 31.274 139.219 30.6965 138.449 29.9375C137.69 29.1675 137.09 28.216 136.65 27.083C136.21 25.95 135.99 24.6355 135.99 23.1395C135.99 21.9845 136.177 20.8955 136.551 19.8725C136.936 18.8495 137.486 17.9585 138.201 17.1995C138.916 16.4405 139.785 15.841 140.808 15.401C141.831 14.95 142.986 14.7245 144.273 14.7245C145.362 14.7245 146.363 14.9005 147.276 15.2525C148.2 15.5935 148.992 16.094 149.652 16.754C150.323 17.414 150.84 18.228 151.203 19.196C151.577 20.153 151.764 21.2475 151.764 22.4795C151.764 22.8205 151.748 23.101 151.715 23.321C151.682 23.541 151.627 23.717 151.55 23.849C151.473 23.981 151.368 24.0745 151.236 24.1295C151.104 24.1735 150.934 24.1955 150.725 24.1955H140.528ZM158.814 16.9685C159.155 16.6385 159.507 16.336 159.87 16.061C160.244 15.786 160.634 15.5495 161.041 15.3515C161.459 15.1535 161.905 14.9995 162.378 14.8895C162.862 14.7795 163.384 14.7245 163.945 14.7245C164.869 14.7245 165.689 14.884 166.404 15.203C167.119 15.522 167.718 15.9675 168.202 16.5395C168.697 17.1115 169.066 17.7935 169.308 18.5855C169.561 19.3775 169.687 20.2465 169.687 21.1925V32H165.15V21.1925C165.15 20.2465 164.93 19.515 164.49 18.998C164.05 18.47 163.401 18.206 162.543 18.206C161.905 18.206 161.305 18.3435 160.744 18.6185C160.183 18.8935 159.65 19.2785 159.144 19.7735V32H154.59V14.9885H157.395C157.967 14.9885 158.346 15.2525 158.533 15.7805L158.814 16.9685ZM185.656 18.7835C185.524 18.9595 185.392 19.097 185.26 19.196C185.128 19.284 184.941 19.328 184.699 19.328C184.479 19.328 184.264 19.2675 184.055 19.1465C183.857 19.0145 183.626 18.877 183.362 18.734C183.098 18.58 182.785 18.4425 182.422 18.3215C182.059 18.1895 181.608 18.1235 181.069 18.1235C180.387 18.1235 179.793 18.25 179.287 18.503C178.792 18.745 178.379 19.097 178.049 19.559C177.719 20.021 177.472 20.582 177.307 21.242C177.153 21.902 177.076 22.6445 177.076 23.4695C177.076 25.2075 177.422 26.5385 178.115 27.4625C178.819 28.3865 179.776 28.8485 180.986 28.8485C181.404 28.8485 181.762 28.8155 182.059 28.7495C182.367 28.6725 182.631 28.579 182.851 28.469C183.082 28.359 183.28 28.238 183.445 28.106C183.61 27.974 183.764 27.853 183.907 27.743C184.061 27.633 184.209 27.545 184.352 27.479C184.506 27.402 184.677 27.3635 184.864 27.3635C185.216 27.3635 185.491 27.4955 185.689 27.7595L186.992 29.4095C186.508 29.9705 185.991 30.438 185.441 30.812C184.891 31.175 184.319 31.4665 183.725 31.6865C183.142 31.8955 182.548 32.0385 181.943 32.1155C181.338 32.2035 180.739 32.2475 180.145 32.2475C179.1 32.2475 178.11 32.055 177.175 31.67C176.24 31.274 175.42 30.702 174.716 29.954C174.012 29.206 173.451 28.2875 173.033 27.1985C172.626 26.1095 172.423 24.8665 172.423 23.4695C172.423 22.2265 172.604 21.0715 172.967 20.0045C173.33 18.9375 173.864 18.0135 174.568 17.2325C175.272 16.4515 176.141 15.841 177.175 15.401C178.22 14.95 179.424 14.7245 180.788 14.7245C182.086 14.7245 183.225 14.9335 184.204 15.3515C185.183 15.7695 186.063 16.3745 186.844 17.1665L185.656 18.7835ZM205.072 14.9885L195.898 36.5705C195.755 36.8785 195.579 37.1095 195.37 37.2635C195.172 37.4175 194.853 37.4945 194.413 37.4945H191.03L194.248 30.6305L187.417 14.9885H191.41C191.773 14.9885 192.053 15.071 192.251 15.236C192.449 15.401 192.592 15.5935 192.68 15.8135L195.914 23.948C196.035 24.267 196.14 24.5915 196.228 24.9215C196.327 25.2405 196.42 25.5595 196.508 25.8785C196.706 25.2295 196.932 24.5805 197.185 23.9315L200.188 15.8135C200.276 15.5715 200.435 15.3735 200.666 15.2195C200.897 15.0655 201.15 14.9885 201.425 14.9885H205.072Z" fill="black"/>
</g>
<defs>
<clipPath id="clip0_288_1796">
<rect width="224" height="38" fill="white"/>
</clipPath>
</defs>
</svg>
