<svg width="274" height="80" viewBox="0 0 274 80" fill="none" xmlns="http://www.w3.org/2000/svg">
<path fill-rule="evenodd" clip-rule="evenodd" d="M86.43 21C76.7999 21 69 28.7999 69 38.43C69 46.1428 73.9893 52.6572 80.9178 54.9667C81.7893 55.1192 82.1161 54.5963 82.1161 54.1388C82.1161 53.7248 82.0943 52.3522 82.0943 50.8924C77.715 51.6986 76.582 49.8249 76.2334 48.8444C76.0374 48.3433 75.1876 46.7964 74.4469 46.3824C73.8368 46.0556 72.9653 45.2495 74.4251 45.2277C75.7977 45.2059 76.7781 46.4914 77.1049 47.0143C78.6736 49.6506 81.1792 48.9098 82.1814 48.4522C82.3339 47.3193 82.7915 46.5567 83.2926 46.121C79.4144 45.6852 75.3619 44.1819 75.3619 37.5149C75.3619 35.6194 76.0374 34.0507 77.1485 32.8306C76.9742 32.3949 76.3642 30.6083 77.3228 28.2117C77.3228 28.2117 78.7826 27.7541 82.1161 29.9982C83.5105 29.6061 84.992 29.41 86.4736 29.41C87.9551 29.41 89.4367 29.6061 90.8311 29.9982C94.1646 27.7323 95.6243 28.2117 95.6243 28.2117C96.583 30.6083 95.9729 32.3949 95.7986 32.8306C96.9098 34.0507 97.5852 35.5976 97.5852 37.5149C97.5852 44.2037 93.5109 45.6852 89.6328 46.121C90.2646 46.6657 90.8093 47.7115 90.8093 49.3455C90.8093 51.6768 90.7875 53.5505 90.7875 54.1388C90.7875 54.5963 91.1143 55.141 91.9858 54.9667C95.446 53.7986 98.4527 51.5748 100.583 48.6083C102.713 45.6418 103.859 42.082 103.86 38.43C103.86 28.7999 96.0601 21 86.43 21Z" fill="#24292E"/>
<path d="M150.256 46.843H150.215C150.233 46.843 150.246 46.8633 150.264 46.8654H150.276L150.256 46.845V46.843ZM150.264 46.8654C150.075 46.8674 149.599 46.9671 149.097 46.9671C147.511 46.9671 146.961 46.235 146.961 45.2793V38.9124H150.195C150.378 38.9124 150.52 38.7497 150.52 38.526V35.0691C150.52 34.886 150.357 34.7234 150.195 34.7234H146.961V30.4327C146.961 30.27 146.86 30.1683 146.677 30.1683H142.284C142.101 30.1683 142 30.27 142 30.4327V34.8454C142 34.8454 139.783 35.3944 139.641 35.4147C139.478 35.4554 139.377 35.5978 139.377 35.7604V38.526C139.377 38.7497 139.539 38.9124 139.722 38.9124H141.979V45.5822C141.979 50.544 145.436 51.0524 147.795 51.0524C148.873 51.0524 150.174 50.7067 150.378 50.605C150.5 50.5643 150.561 50.422 150.561 50.2796V47.2294C150.564 47.1429 150.535 47.0582 150.481 46.991C150.426 46.9238 150.349 46.8785 150.264 46.8633V46.8654ZM198.45 42.3897C198.45 38.709 196.965 38.221 195.399 38.3837C194.179 38.465 193.203 39.075 193.203 39.075V46.233C193.203 46.233 194.2 46.9244 195.684 46.965C197.779 47.026 198.45 46.2736 198.45 42.3897ZM203.391 42.0643C203.391 49.0392 201.134 51.032 197.189 51.032C193.854 51.032 192.064 49.3442 192.064 49.3442C192.064 49.3442 191.983 50.2796 191.881 50.4016C191.82 50.5236 191.719 50.5643 191.597 50.5643H188.587C188.384 50.5643 188.201 50.4016 188.201 50.2186L188.242 27.6264C188.242 27.4434 188.404 27.2808 188.587 27.2808H192.919C193.102 27.2808 193.264 27.4434 193.264 27.6264V35.2927C193.264 35.2927 194.932 34.215 197.372 34.215L197.352 34.1743C199.792 34.1743 203.391 35.0894 203.391 42.0643ZM185.659 34.7234H181.389C181.165 34.7234 181.043 34.886 181.043 35.1097V46.172C181.043 46.172 179.924 46.965 178.399 46.965C176.874 46.965 176.427 46.2736 176.427 44.7485V35.0894C176.427 34.9064 176.264 34.7437 176.081 34.7437H171.729C171.546 34.7437 171.384 34.9064 171.384 35.0894V45.4806C171.384 49.9543 173.885 51.0727 177.322 51.0727C180.148 51.0727 182.446 49.5069 182.446 49.5069C182.446 49.5069 182.548 50.3 182.609 50.422C182.649 50.5236 182.792 50.605 182.934 50.605H185.659C185.883 50.605 186.005 50.4423 186.005 50.2593L186.045 35.0691C186.045 34.886 185.883 34.7234 185.659 34.7234ZM137.465 34.703H133.134C132.951 34.703 132.788 34.886 132.788 35.1097V50.0356C132.788 50.4423 133.052 50.5847 133.398 50.5847H137.302C137.709 50.5847 137.811 50.4016 137.811 50.0356V35.0487C137.811 34.8657 137.648 34.703 137.465 34.703ZM135.33 27.8298C133.764 27.8298 132.524 29.0702 132.524 30.636C132.524 32.2018 133.764 33.4423 135.33 33.4423C136.855 33.4423 138.095 32.2018 138.095 30.636C138.095 29.0702 136.855 27.8298 135.33 27.8298ZM168.862 27.3214H164.572C164.389 27.3214 164.226 27.4841 164.226 27.6671V35.9841H157.495V27.6671C157.495 27.4841 157.332 27.3214 157.149 27.3214H152.818C152.635 27.3214 152.472 27.4841 152.472 27.6671V50.2593C152.472 50.4423 152.655 50.605 152.818 50.605H157.149C157.332 50.605 157.495 50.4423 157.495 50.2593V40.6002H164.226L164.185 50.2593C164.185 50.4423 164.348 50.605 164.531 50.605H168.862C169.045 50.605 169.208 50.4423 169.208 50.2593V27.6671C169.208 27.4841 169.045 27.3214 168.862 27.3214ZM130.49 37.3262V48.9985C130.49 49.0799 130.47 49.2222 130.368 49.2629C130.368 49.2629 127.826 51.0727 123.637 51.0727C118.574 51.0727 112.575 49.4866 112.575 39.0344C112.575 28.5822 117.821 26.4267 122.946 26.447C127.379 26.447 129.168 27.4434 129.453 27.6264C129.534 27.7281 129.575 27.8095 129.575 27.9111L128.721 31.5308C128.721 31.7138 128.538 31.9375 128.314 31.8765C127.582 31.6528 126.484 31.2054 123.902 31.2054C120.912 31.2054 117.699 32.0595 117.699 38.7904C117.699 45.5212 120.75 46.3143 122.946 46.3143C124.817 46.3143 125.488 46.0906 125.488 46.0906V41.4136H122.498C122.275 41.4136 122.112 41.2509 122.112 41.0679V37.3262C122.112 37.1432 122.275 36.9805 122.498 36.9805H130.104C130.327 36.9805 130.49 37.1432 130.49 37.3262Z" fill="#24292E"/>
</svg>
