<svg width="274" height="80" viewBox="0 0 274 80" fill="none" xmlns="http://www.w3.org/2000/svg">
<path d="M54.5329 43.852C56.7937 43.852 59.0036 43.1815 60.8833 41.9254C62.763 40.6693 64.2279 38.8839 65.0928 36.7951C65.9577 34.7064 66.1837 32.408 65.7423 30.1908C65.3008 27.9736 64.2118 25.937 62.6128 24.3388C61.0138 22.7406 58.9768 21.6525 56.7593 21.2121C54.5419 20.7717 52.2436 20.9988 50.1553 21.8648C48.0669 22.7307 46.2823 24.1964 45.0271 26.0767C43.7718 27.957 43.1024 30.1673 43.1035 32.428C43.1035 33.9287 43.3992 35.4147 43.9736 36.801C44.5481 38.1874 45.3901 39.447 46.4514 40.5079C47.5128 41.5688 48.7728 42.4102 50.1595 42.9839C51.5461 43.5577 53.0322 43.8527 54.5329 43.852Z" fill="#FFCD00"/>
<path d="M54.6036 49.5636H54.5653C50.7543 49.5627 47.0521 48.2925 44.0431 45.9537C41.0342 43.6148 38.8899 40.3405 37.9487 36.6475C37.3747 34.3627 35.5163 32.4277 33.1605 32.4277H26C26 40.0037 29.0095 47.2694 34.3666 52.6265C39.7236 57.9835 46.9893 60.993 54.5653 60.993H54.6036V49.5636Z" fill="#00ECBB"/>
<path d="M54.5322 49.5636H54.565C58.3763 49.5636 62.0789 48.2938 65.0881 45.9548C68.0972 43.6158 70.2413 40.3409 71.1817 36.6475C71.7611 34.3627 73.6195 32.4277 75.9753 32.4277H83.1358C83.1343 40.0042 80.1236 47.2699 74.7657 52.6268C69.4078 57.9837 62.1415 60.993 54.565 60.993H54.5322V49.5636Z" fill="#AF64FF"/>
<path d="M74.7673 52.6246C72.1148 55.2774 68.9657 57.3818 65.4998 58.8175C62.0339 60.2532 58.3192 60.9921 54.5678 60.9921C50.8163 60.9921 47.1016 60.2532 43.6357 58.8175C40.1699 57.3818 37.0207 55.2774 34.3682 52.6246L42.4469 44.5459C45.6623 47.7592 50.022 49.5643 54.5678 49.5643C59.1135 49.5643 63.4733 47.7592 66.6886 44.5459L74.7673 52.6246Z" fill="#7131FF"/>
<path fill-rule="evenodd" clip-rule="evenodd" d="M225.432 31.8549H228.575V45.2357H225.432V31.8549ZM227.018 29.6685C226.487 29.6807 225.973 29.4845 225.586 29.1219C225.398 28.9512 225.25 28.7424 225.15 28.5096C225.05 28.2767 225.001 28.0252 225.006 27.7718C225.003 27.5252 225.053 27.2807 225.153 27.0552C225.253 26.8298 225.4 26.6286 225.586 26.4654C225.776 26.2844 226.001 26.1429 226.247 26.0491C226.493 25.9553 226.755 25.911 227.018 25.9188C227.548 25.9096 228.061 26.1054 228.45 26.4654C228.635 26.6224 228.783 26.8186 228.883 27.0398C228.983 27.261 229.033 27.5017 229.029 27.7445C229.033 28.0058 228.984 28.2651 228.884 28.5067C228.785 28.7482 228.637 28.9669 228.45 29.1493C228.257 29.3247 228.031 29.4597 227.785 29.5461C227.539 29.6325 227.278 29.6685 227.018 29.6521V29.6685ZM220.803 45.4106C220.529 45.4167 220.256 45.3668 220.002 45.264C219.748 45.1612 219.517 45.0077 219.324 44.8128C219.131 44.6179 218.98 44.3857 218.88 44.1304C218.78 43.8751 218.733 43.6021 218.742 43.328C218.732 43.0514 218.778 42.7755 218.878 42.5172C218.978 42.2588 219.128 42.0233 219.321 41.8249C219.518 41.6365 219.751 41.4888 220.005 41.3903C220.259 41.2918 220.53 41.2445 220.803 41.251C221.077 41.2441 221.349 41.2933 221.603 41.3955C221.857 41.4976 222.088 41.6507 222.281 41.8451C222.474 42.0396 222.625 42.2715 222.725 42.5265C222.825 42.7815 222.872 43.0542 222.863 43.328C222.873 43.6023 222.827 43.8757 222.727 44.1313C222.627 44.387 222.476 44.6195 222.283 44.8145C222.09 45.0096 221.859 45.1631 221.605 45.2656C221.35 45.3681 221.077 45.4175 220.803 45.4106ZM234.561 44.536C235.703 45.11 236.964 45.409 238.242 45.409C239.52 45.409 240.781 45.11 241.923 44.536C242.981 43.9783 243.861 43.1358 244.465 42.1037C245.09 41.0232 245.411 39.7936 245.394 38.5453C245.415 37.3053 245.093 36.0837 244.465 35.0143C243.858 33.9788 242.972 33.1357 241.907 32.5819C240.765 32.0079 239.504 31.709 238.226 31.709C236.947 31.709 235.687 32.0079 234.544 32.5819C233.482 33.1403 232.594 33.9823 231.981 35.0143C231.365 36.0877 231.051 37.3079 231.073 38.5453C231.054 39.791 231.367 41.0193 231.981 42.1037C232.601 43.1359 233.494 43.9775 234.561 44.536ZM241.093 41.5789C240.321 42.3154 239.295 42.7263 238.228 42.7263C237.162 42.7263 236.136 42.3154 235.364 41.5789C234.991 41.1701 234.703 40.6917 234.515 40.1711C234.328 39.6505 234.245 39.098 234.271 38.5453C234.245 37.9926 234.328 37.4401 234.515 36.9195C234.703 36.3989 234.991 35.9205 235.364 35.5117C236.134 34.7715 237.16 34.358 238.228 34.358C239.296 34.358 240.323 34.7715 241.093 35.5117C241.475 35.9157 241.772 36.3924 241.966 36.9136C242.161 37.4347 242.248 37.9896 242.224 38.5453C242.248 39.101 242.161 39.6559 241.966 40.177C241.772 40.6982 241.475 41.1749 241.093 41.5789ZM152.265 44.5032C151.866 44.819 151.406 45.048 150.915 45.1756C150.381 45.3263 149.829 45.4017 149.275 45.3997C148.036 45.4796 146.816 45.067 145.88 44.2518C145.459 43.8103 145.135 43.2856 144.929 42.7113C144.723 42.1371 144.639 41.5261 144.683 40.9175V29.0071H147.799V32.0408H151.368V34.5333H147.799V40.8574C147.764 41.3969 147.934 41.9298 148.274 42.3496C148.456 42.5235 148.672 42.6576 148.908 42.7433C149.144 42.8289 149.396 42.8643 149.646 42.847C150.275 42.8685 150.891 42.6757 151.396 42.3004L152.265 44.5032ZM107.23 45.3997C105.939 45.4202 104.662 45.1217 103.513 44.5306C102.449 43.9798 101.559 43.1431 100.944 42.1146C100.32 41.0418 100.001 39.819 100.021 38.5781C99.9985 37.3455 100.318 36.1309 100.944 35.0689C101.553 34.0452 102.433 33.2093 103.486 32.653C104.644 32.0594 105.93 31.7608 107.23 31.7839C108.427 31.7574 109.611 32.0318 110.674 32.5819C111.646 33.0894 112.43 33.8962 112.909 34.8831L110.532 36.3042C110.188 35.7127 109.686 35.2283 109.083 34.9049C108.509 34.5904 107.863 34.4285 107.208 34.4349C106.674 34.418 106.142 34.5106 105.645 34.7071C105.147 34.9035 104.695 35.1997 104.317 35.5773C103.928 35.9728 103.625 36.4446 103.428 36.963C103.23 37.4813 103.142 38.035 103.169 38.589C103.139 39.1429 103.22 39.6972 103.408 40.2192C103.596 40.7411 103.886 41.2202 104.262 41.6281C104.901 42.2193 105.704 42.602 106.565 42.725C107.427 42.8481 108.305 42.7057 109.083 42.3168C109.679 41.9861 110.178 41.5056 110.532 40.923L112.909 42.3168C112.404 43.299 111.613 44.1051 110.641 44.629C109.589 45.1688 108.418 45.4375 107.236 45.4106L107.23 45.3997ZM132.92 44.9788C133.954 45.2583 135.02 45.3998 136.091 45.3997C137.955 45.3997 139.43 45.028 140.507 44.3065C141.014 43.9922 141.432 43.5524 141.719 43.0295C142.006 42.5067 142.154 41.9186 142.147 41.322C142.196 40.5229 141.927 39.7368 141.398 39.1356C140.92 38.6276 140.32 38.2511 139.655 38.0424C138.794 37.7968 137.918 37.6142 137.031 37.4958C136.228 37.3514 135.44 37.1356 134.675 36.8508C134.448 36.7757 134.251 36.6281 134.116 36.4306C133.981 36.2331 133.914 35.9967 133.926 35.7576C133.926 35.5282 133.991 35.3033 134.114 35.1096C134.237 34.9159 134.412 34.7614 134.62 34.6644C135.273 34.3479 135.995 34.2031 136.719 34.2436C138.061 34.2226 139.384 34.5665 140.546 35.2384L141.748 32.8716C141.046 32.4836 140.288 32.207 139.502 32.0517C138.606 31.8406 137.689 31.7324 136.769 31.7292C135.254 31.6525 133.754 32.052 132.478 32.8716C131.983 33.2002 131.58 33.6488 131.305 34.1754C131.031 34.7021 130.895 35.2897 130.909 35.8834C130.859 36.7065 131.125 37.5177 131.652 38.1517C132.154 38.6571 132.771 39.0324 133.451 39.2449C134.335 39.4983 135.235 39.69 136.145 39.8189C136.918 39.9185 137.68 40.0924 138.419 40.3381C138.63 40.3975 138.816 40.5252 138.946 40.7013C139.077 40.8774 139.145 41.0919 139.141 41.3111C139.141 42.2913 138.21 42.7796 136.348 42.776C135.503 42.7718 134.664 42.656 133.85 42.4316C133.091 42.2147 132.369 41.8869 131.707 41.4587L130.51 43.8255C131.251 44.349 132.075 44.7427 132.948 44.9897L132.92 44.9788ZM156.714 44.5306C157.848 45.102 159.101 45.3996 160.371 45.3996C161.641 45.3996 162.893 45.102 164.027 44.5306C165.076 43.975 165.948 43.1384 166.547 42.1146C167.169 41.0408 167.488 39.8187 167.471 38.5781C167.49 37.3458 167.171 36.132 166.547 35.0689C165.948 34.0451 165.076 33.2085 164.027 32.653C162.893 32.0816 161.641 31.7839 160.371 31.7839C159.101 31.7839 157.848 32.0816 156.714 32.653C155.661 33.2119 154.781 34.0471 154.167 35.0689C153.559 36.1374 153.25 37.3493 153.27 38.5781C153.252 39.8154 153.561 41.0355 154.167 42.1146C154.786 43.1441 155.677 43.9836 156.741 44.5415L156.714 44.5306ZM163.202 41.5899C162.438 42.3263 161.418 42.7378 160.357 42.7378C159.296 42.7378 158.276 42.3263 157.512 41.5899C157.14 41.185 156.851 40.7104 156.664 40.1935C156.476 39.6765 156.393 39.1275 156.419 38.5781C156.393 38.0288 156.477 37.4799 156.665 36.963C156.852 36.4462 157.14 35.9715 157.512 35.5663C158.278 34.8336 159.297 34.4247 160.357 34.4247C161.417 34.4247 162.436 34.8336 163.202 35.5663C163.581 35.9675 163.876 36.4409 164.068 36.9583C164.261 37.4757 164.347 38.0266 164.323 38.5781C164.353 39.1296 164.272 39.6815 164.084 40.2009C163.896 40.7203 163.606 41.1964 163.229 41.6008L163.202 41.5899ZM187.252 31.7839C187.983 31.746 188.714 31.8568 189.401 32.1096C190.088 32.3623 190.716 32.7517 191.248 33.2542C192.227 34.2162 192.718 35.6647 192.718 37.627V45.2357H189.597V38.0151C189.684 37.0869 189.432 36.1586 188.887 35.4024C188.607 35.0969 188.263 34.8579 187.879 34.7028C187.495 34.5477 187.081 34.4804 186.668 34.5059C186.196 34.486 185.727 34.5696 185.291 34.7509C184.856 34.9322 184.465 35.2069 184.148 35.5554C183.459 36.3724 183.112 37.4241 183.18 38.4906V45.2357H180.059V38.0151C180.129 37.0794 179.855 36.1504 179.289 35.4024C179.009 35.0972 178.664 34.8584 178.28 34.7033C177.896 34.5482 177.483 34.4808 177.069 34.5059C176.596 34.4851 176.125 34.5655 175.685 34.7418C175.246 34.918 174.849 35.1861 174.522 35.5281C173.848 36.3624 173.512 37.4201 173.582 38.4906V45.2357H170.461V37.7965C170.461 34.0686 173.287 31.7839 176.976 31.7839C178.156 31.7682 179.33 31.9626 180.442 32.3578C181.209 32.7053 181.853 33.277 182.289 33.9976C182.85 33.2847 183.579 32.7214 184.41 32.3578C185.319 31.9612 186.305 31.769 187.296 31.7948L187.252 31.7839ZM209.346 39.5838C209.379 39.1866 209.395 38.8805 209.395 38.6656C209.423 37.415 209.123 36.179 208.526 35.0799C207.979 34.0575 207.145 33.2176 206.127 32.6639C205.069 32.0729 203.873 31.7731 202.661 31.7948C201.424 31.7752 200.202 32.0745 199.114 32.6639C198.081 33.2332 197.227 34.0793 196.649 35.1072C196.055 36.1705 195.754 37.3716 195.774 38.589C195.753 39.8266 196.062 41.0474 196.67 42.1255C197.295 43.1584 198.196 43.9954 199.272 44.5415C200.354 45.0534 201.526 45.3456 202.722 45.4009C203.917 45.4563 205.112 45.2738 206.236 44.864C207.117 44.516 207.897 43.9522 208.504 43.2242L206.832 41.3056C206.361 41.7828 205.796 42.1573 205.173 42.4056C204.551 42.654 203.883 42.7708 203.213 42.7487C202.183 42.7855 201.169 42.4883 200.322 41.9014C199.567 41.3395 199.054 40.5106 198.89 39.5838H209.346ZM200.114 35.1782C200.824 34.5771 201.731 34.2581 202.661 34.2818C203.591 34.2527 204.497 34.5724 205.203 35.1782C205.888 35.7787 206.324 36.6128 206.427 37.5177H198.868C198.978 36.6101 199.422 35.7761 200.114 35.1782ZM220.103 31.7948V34.7574C219.865 34.7104 219.624 34.6848 219.382 34.6808C218.857 34.6533 218.332 34.7364 217.842 34.9248C217.351 35.1131 216.905 35.4024 216.534 35.774C215.804 36.6116 215.436 37.7047 215.512 38.8131V45.2357H212.391V38.5344C212.391 33.6751 215.512 31.1881 220.103 31.7948ZM121.715 45.4106C119.933 45.4106 118.037 44.9187 117.009 43.9402C115.981 42.9618 115.484 41.4751 115.484 39.5346V31.9314H118.605V39.1138C118.532 40.0778 118.816 41.0351 119.403 41.803C120.044 42.3628 120.867 42.6712 121.718 42.6712C122.569 42.6712 123.391 42.3628 124.033 41.803C124.618 41.0339 124.902 40.0775 124.831 39.1138V31.9314H127.952V39.5346C127.952 41.4769 127.444 42.9454 126.427 43.9402C125.388 44.9187 123.481 45.4106 121.704 45.4106H121.715Z" fill="#2F326A"/>
</svg>
