<svg width="274" height="80" viewBox="0 0 274 80" fill="none" xmlns="http://www.w3.org/2000/svg">
<path fill-rule="evenodd" clip-rule="evenodd" d="M149.935 53.8073C143.571 58.4978 134.348 61.0003 126.406 61.0003C115.271 61.0003 105.247 56.8819 97.6631 50.0321C97.0673 49.4935 97.6011 48.7594 98.3161 49.1789C106.501 53.9408 116.62 56.8056 127.074 56.8056C134.124 56.8056 141.879 55.347 149.01 52.3201C150.087 51.8625 150.988 53.0256 149.935 53.8073Z" fill="#FF9900"/>
<path fill-rule="evenodd" clip-rule="evenodd" d="M152.581 50.7805C151.77 49.7414 147.204 50.2895 145.154 50.5326C144.53 50.6089 144.434 50.0655 144.997 49.6746C148.634 47.1149 154.602 47.8538 155.298 48.7118C155.993 49.5745 155.116 55.5568 151.699 58.412C151.174 58.8506 150.674 58.617 150.907 58.0355C151.675 56.1192 153.396 51.8244 152.581 50.7805Z" fill="#FF9900"/>
<path fill-rule="evenodd" clip-rule="evenodd" d="M145.297 31.6036V29.1154C145.297 28.7388 145.583 28.4862 145.927 28.4862H157.066C157.424 28.4862 157.71 28.7436 157.71 29.1154V31.2461C157.705 31.6036 157.405 32.0708 156.871 32.8096L151.098 41.0513C153.243 40.9988 155.508 41.3182 157.452 42.4145C157.891 42.6624 158.01 43.0247 158.043 43.3822V46.0373C158.043 46.3995 157.643 46.8238 157.224 46.6045C153.796 44.8074 149.244 44.612 145.455 46.6236C145.068 46.8333 144.663 46.4138 144.663 46.0516V43.53C144.663 43.1248 144.668 42.4336 145.073 41.8187L151.761 32.2281H145.941C145.583 32.2281 145.297 31.9754 145.297 31.6036Z" fill="black"/>
<path fill-rule="evenodd" clip-rule="evenodd" d="M104.661 47.1289H101.272C100.948 47.105 100.69 46.8619 100.667 46.5521V29.1583C100.667 28.8104 100.957 28.5339 101.32 28.5339H104.48C104.809 28.5482 105.071 28.8008 105.095 29.1154V31.3892H105.157C105.981 29.1917 107.531 28.1669 109.618 28.1669C111.74 28.1669 113.065 29.1917 114.018 31.3892C114.838 29.1917 116.702 28.1669 118.699 28.1669C120.119 28.1669 121.673 28.7532 122.622 30.0688C123.695 31.5322 123.475 33.6581 123.475 35.5219L123.47 46.4997C123.47 46.8476 123.18 47.1289 122.817 47.1289H119.433C119.095 47.105 118.823 46.8333 118.823 46.4997V37.2808C118.823 36.5468 118.89 34.7163 118.728 34.0204C118.475 32.8526 117.717 32.5236 116.735 32.5236C115.915 32.5236 115.057 33.0718 114.709 33.9489C114.361 34.826 114.395 36.2941 114.395 37.2808V46.4997C114.395 46.8476 114.104 47.1289 113.742 47.1289H110.357C110.014 47.105 109.747 46.8333 109.747 46.4997L109.742 37.2808C109.742 35.3408 110.062 32.4855 107.655 32.4855C105.219 32.4855 105.314 35.2693 105.314 37.2808V46.4997C105.314 46.8476 105.023 47.1289 104.661 47.1289Z" fill="black"/>
<path fill-rule="evenodd" clip-rule="evenodd" d="M167.3 28.1669C172.329 28.1669 175.051 32.4855 175.051 37.9768C175.051 43.2821 172.043 47.4911 167.3 47.4911C162.362 47.4911 159.674 43.1725 159.674 37.7909C159.674 32.3759 162.395 28.1669 167.3 28.1669ZM167.329 31.7181C164.831 31.7181 164.674 35.1215 164.674 37.2427C164.674 39.3686 164.641 43.9066 167.3 43.9066C169.927 43.9066 170.051 40.2457 170.051 38.0149C170.051 36.5468 169.989 34.7926 169.545 33.4007C169.164 32.19 168.406 31.7181 167.329 31.7181Z" fill="black"/>
<path fill-rule="evenodd" clip-rule="evenodd" d="M181.572 47.1289H178.197C177.859 47.105 177.587 46.8333 177.587 46.4997L177.582 29.1011C177.611 28.7818 177.892 28.5339 178.235 28.5339H181.377C181.672 28.5482 181.915 28.7484 181.982 29.0201V31.6799H182.044C182.992 29.3013 184.322 28.1669 186.663 28.1669C188.183 28.1669 189.666 28.715 190.619 30.2166C191.506 31.6084 191.506 33.9489 191.506 35.6315V46.5807C191.468 46.8858 191.186 47.1289 190.853 47.1289H187.454C187.144 47.105 186.887 46.8762 186.854 46.5807V37.1331C186.854 35.2311 187.073 32.4474 184.732 32.4474C183.908 32.4474 183.15 33.0003 182.773 33.8393C182.297 34.9022 182.235 35.9605 182.235 37.1331V46.4997C182.23 46.8476 181.934 47.1289 181.572 47.1289Z" fill="black"/>
<path fill-rule="evenodd" clip-rule="evenodd" d="M136.417 38.8204C136.417 40.1408 136.45 41.2419 135.783 42.4146C135.244 43.3679 134.386 43.9542 133.438 43.9542C132.136 43.9542 131.374 42.9627 131.374 41.4993C131.374 38.6107 133.962 38.0864 136.417 38.0864V38.8204ZM139.835 47.0812C139.611 47.2814 139.286 47.2957 139.034 47.1622C137.909 46.2279 137.704 45.7942 137.089 44.9028C135.23 46.7999 133.91 47.3672 131.502 47.3672C128.647 47.3672 126.431 45.6083 126.431 42.0857C126.431 39.3353 127.918 37.4619 130.044 36.5467C131.884 35.7364 134.453 35.5934 136.417 35.3693V34.9308C136.417 34.1252 136.479 33.1719 136.002 32.476C135.592 31.8515 134.801 31.5941 134.1 31.5941C132.809 31.5941 131.66 32.2567 131.379 33.6295C131.321 33.9346 131.097 34.2349 130.787 34.2492L127.503 33.8964C127.227 33.8345 126.917 33.6104 126.998 33.1862C127.751 29.2012 131.355 28 134.577 28C136.226 28 138.381 28.4385 139.682 29.6874C141.331 31.2271 141.174 33.2815 141.174 35.5171V40.7986C141.174 42.386 141.832 43.0819 142.452 43.9399C142.666 44.245 142.714 44.612 142.437 44.8408C141.746 45.4176 140.516 46.4901 139.839 47.0907L139.835 47.0812Z" fill="black"/>
<path fill-rule="evenodd" clip-rule="evenodd" d="M91.9863 38.8204C91.9863 40.1408 92.0196 41.2419 91.3523 42.4145C90.8137 43.3679 89.9604 43.9542 89.0071 43.9542C87.7058 43.9542 86.9478 42.9627 86.9478 41.4993C86.9478 38.6107 89.5362 38.0864 91.9863 38.0864V38.8204ZM95.404 47.0812C95.18 47.2814 94.8558 47.2957 94.6032 47.1622C93.4782 46.2279 93.278 45.7941 92.6584 44.9028C90.7994 46.7999 89.4837 47.3672 87.0718 47.3672C84.2213 47.3672 82 45.6082 82 42.0856C82 39.3352 83.492 37.4619 85.6132 36.5467C87.4531 35.7364 90.0224 35.5934 91.9863 35.3693V34.9308C91.9863 34.1252 92.0482 33.1719 91.5763 32.4759C91.1616 31.8515 90.3703 31.5941 89.6744 31.5941C88.3826 31.5941 87.2291 32.2567 86.9478 33.6295C86.8906 33.9346 86.6666 34.2349 86.3615 34.2492L83.0725 33.8964C82.796 33.8345 82.491 33.6104 82.5672 33.1862C83.3251 29.2012 86.924 28 90.1463 28C91.7956 28 93.9501 28.4385 95.2515 29.6874C96.9007 31.2271 96.7434 33.2815 96.7434 35.5171V40.7986C96.7434 42.3859 97.4013 43.0819 98.0209 43.9399C98.2402 44.245 98.2879 44.612 98.0114 44.8408C97.3202 45.4176 96.0904 46.4901 95.4135 47.0907L95.404 47.0812Z" fill="black"/>
</svg>
