<svg width="274" height="80" viewBox="0 0 274 80" fill="none" xmlns="http://www.w3.org/2000/svg">
<g clip-path="url(#clip0_242_9212)">
<path d="M121.709 41.6624L119.032 34.6559C118.923 34.3694 118.505 34.3694 118.396 34.6559L115.719 41.6628C115.7 41.7126 115.694 41.7662 115.701 41.8188C115.708 41.8715 115.728 41.9218 115.759 41.9654C115.79 42.009 115.832 42.0446 115.88 42.0692C115.929 42.0938 115.983 42.1066 116.037 42.1066H121.391C121.446 42.1066 121.5 42.0937 121.548 42.0691C121.597 42.0445 121.638 42.0089 121.669 41.9653C121.701 41.9216 121.721 41.8713 121.727 41.8186C121.734 41.7659 121.728 41.7124 121.709 41.6626L121.709 41.6624ZM122.946 45.6006H114.483C114.414 45.6006 114.346 45.6212 114.289 45.6596C114.232 45.698 114.189 45.7523 114.165 45.8154L112.499 50.175C112.475 50.238 112.431 50.2923 112.374 50.3307C112.317 50.3691 112.25 50.3897 112.181 50.3897H108.513C108.457 50.3897 108.402 50.3765 108.353 50.3512C108.305 50.326 108.263 50.2895 108.232 50.2449C108.201 50.2003 108.181 50.149 108.175 50.0954C108.169 50.0419 108.177 49.9878 108.198 49.9378L116.643 29.5118C116.668 29.4507 116.712 29.3985 116.768 29.3617C116.824 29.3249 116.89 29.3053 116.958 29.3053H120.47C120.609 29.3053 120.733 29.387 120.785 29.5118L129.23 49.9376C129.251 49.9876 129.259 50.0418 129.253 50.0953C129.247 50.1489 129.228 50.2003 129.196 50.245C129.165 50.2896 129.123 50.3262 129.074 50.3515C129.025 50.3767 128.971 50.3899 128.915 50.3899H125.248C125.179 50.3899 125.111 50.3693 125.054 50.3309C124.997 50.2924 124.954 50.238 124.93 50.175L123.263 45.8154C123.239 45.7523 123.196 45.698 123.139 45.6596C123.082 45.6212 123.015 45.6006 122.945 45.6006H122.946ZM130.949 36.4739H134.086C134.176 36.4739 134.262 36.5086 134.326 36.5703C134.39 36.6321 134.425 36.7159 134.425 36.8032V50.0603C134.425 50.1477 134.39 50.2315 134.326 50.2932C134.262 50.355 134.176 50.3897 134.086 50.3897H130.949C130.859 50.3897 130.772 50.355 130.709 50.2932C130.645 50.2315 130.609 50.1477 130.609 50.0603V36.803C130.609 36.7157 130.645 36.6319 130.709 36.5701C130.772 36.5083 130.859 36.4736 130.949 36.4736V36.4739ZM145.867 39.6986C145.867 39.786 145.832 39.8698 145.768 39.9316C145.704 39.9933 145.618 40.028 145.528 40.028H145.433C143.882 40.028 142.744 40.3895 142.02 41.1123C141.296 41.8352 140.935 43.0302 140.935 44.6968V50.0603C140.935 50.1477 140.899 50.2315 140.835 50.2932C140.772 50.355 140.685 50.3897 140.596 50.3897H137.489C137.399 50.3897 137.313 50.355 137.249 50.2932C137.185 50.2315 137.15 50.1477 137.15 50.0603V36.803C137.15 36.7157 137.185 36.6319 137.249 36.5701C137.313 36.5083 137.399 36.4736 137.489 36.4736H140.564C140.654 36.4736 140.741 36.5083 140.804 36.5701C140.868 36.6319 140.904 36.7157 140.904 36.803V39.4253H140.966C141.338 38.341 141.927 37.5081 142.734 36.9253C143.541 36.3432 144.533 36.0518 145.712 36.0518H145.867V39.6984V39.6986ZM154.446 39.5761C154.356 39.5761 154.27 39.6108 154.206 39.6726C154.142 39.7344 154.107 39.8181 154.107 39.9055V45.4197C154.107 45.982 154.22 46.3836 154.448 46.6245C154.675 46.8654 155.068 46.986 155.626 46.986H155.939C156.029 46.986 156.115 47.0207 156.179 47.0824C156.242 47.1442 156.278 47.228 156.278 47.3153V50.0902C156.278 50.1776 156.242 50.2613 156.179 50.3231C156.115 50.3849 156.029 50.4196 155.939 50.4196H154.603C153.217 50.4196 152.152 50.0733 151.407 49.3805C150.663 48.6877 150.29 47.659 150.29 46.2932V39.9055C150.29 39.8181 150.255 39.7344 150.191 39.6726C150.127 39.6108 150.041 39.5761 149.951 39.5761H147.993C147.903 39.5761 147.816 39.5414 147.753 39.4797C147.689 39.4179 147.653 39.3341 147.653 39.2467V36.803C147.653 36.7157 147.689 36.6319 147.753 36.5701C147.816 36.5083 147.903 36.4736 147.993 36.4736H149.951C150.041 36.4736 150.128 36.4389 150.191 36.3772C150.255 36.3154 150.291 36.2316 150.291 36.1443V31.2307C150.291 31.1433 150.326 31.0595 150.39 30.9977C150.453 30.936 150.54 30.9013 150.63 30.9013H153.767C153.857 30.9013 153.943 30.936 154.007 30.9977C154.071 31.0595 154.106 31.1433 154.106 31.2307V36.1443C154.106 36.2316 154.142 36.3154 154.206 36.3772C154.269 36.4389 154.356 36.4736 154.446 36.4736H156.714C156.804 36.4736 156.891 36.5083 156.954 36.5701C157.018 36.6319 157.054 36.7157 157.054 36.803V39.247C157.054 39.3343 157.018 39.4181 156.954 39.4799C156.891 39.5416 156.804 39.5763 156.714 39.5763H154.446V39.5761ZM168.812 46.2631C169.526 45.5402 169.882 44.5964 169.882 43.4316C169.882 42.2673 169.526 41.3231 168.812 40.6003C168.098 39.8774 167.162 39.516 166.004 39.516C164.846 39.516 163.91 39.8774 163.197 40.6003C162.483 41.3231 162.126 42.2673 162.126 43.4316C162.126 44.5964 162.483 45.5402 163.197 46.2631C163.91 46.986 164.846 47.3474 166.004 47.3474C167.162 47.3474 168.098 46.986 168.812 46.2631ZM161.568 49.9679C160.513 49.3858 159.68 48.5371 159.071 47.4227C158.46 46.3083 158.155 44.9781 158.155 43.4316C158.155 41.8857 158.46 40.555 159.071 39.4406C159.68 38.3263 160.513 37.4782 161.568 36.8955C162.623 36.3131 163.781 36.022 165.043 36.022C166.159 36.022 167.116 36.2328 167.913 36.6544C168.708 37.0759 169.344 37.6686 169.82 38.4317H169.882V36.803C169.882 36.7157 169.918 36.6319 169.982 36.5701C170.045 36.5083 170.132 36.4736 170.221 36.4736H173.328C173.418 36.4736 173.504 36.5083 173.568 36.5701C173.631 36.6319 173.667 36.7157 173.667 36.803V50.0601C173.667 50.1475 173.631 50.2312 173.568 50.293C173.504 50.3548 173.418 50.3895 173.328 50.3895H170.221C170.132 50.3895 170.045 50.3548 169.982 50.293C169.918 50.2312 169.882 50.1475 169.882 50.0601V48.4317H169.82C169.344 49.1952 168.708 49.7872 167.912 50.2088C167.116 50.6304 166.16 50.8412 165.043 50.8412C163.781 50.8412 162.623 50.55 161.568 49.9679ZM186.586 46.2631C187.3 45.5402 187.656 44.5964 187.656 43.4316C187.656 42.2673 187.3 41.3231 186.586 40.6003C185.873 39.8774 184.937 39.516 183.779 39.516C182.62 39.516 181.685 39.8774 180.971 40.6003C180.258 41.3231 179.901 42.2673 179.901 43.4316C179.901 44.5964 180.258 45.5402 180.971 46.2631C181.685 46.986 182.62 47.3474 183.779 47.3474C184.937 47.3474 185.873 46.986 186.586 46.2631ZM181.871 50.2088C181.074 49.7872 180.438 49.1952 179.963 48.4317H179.901V50.0601C179.901 50.1475 179.865 50.2312 179.801 50.293C179.738 50.3548 179.651 50.3895 179.561 50.3895H176.424C176.334 50.3895 176.248 50.3548 176.184 50.293C176.121 50.2312 176.085 50.1475 176.085 50.0601V29.6341C176.085 29.5467 176.121 29.4629 176.184 29.4012C176.248 29.3394 176.334 29.3047 176.424 29.3047H179.561C179.651 29.3047 179.738 29.3394 179.801 29.4012C179.865 29.4629 179.901 29.5467 179.901 29.6341V38.4314H179.963C180.438 37.6684 181.074 37.0759 181.871 36.6544C182.667 36.2325 183.624 36.0217 184.741 36.0217C186.002 36.0217 187.16 36.3129 188.215 36.8952C189.27 37.478 190.102 38.326 190.712 39.4402C191.322 40.5552 191.628 41.8859 191.628 43.4318C191.628 44.9783 191.322 46.3083 190.713 47.4229C190.102 48.5373 189.27 49.386 188.215 49.9679C187.161 50.5502 186.002 50.8416 184.741 50.8416C183.624 50.8416 182.667 50.6308 181.871 50.209L181.871 50.2088ZM196.914 50.3897H193.776C193.687 50.3897 193.6 50.355 193.537 50.2932C193.473 50.2315 193.437 50.1477 193.437 50.0603V29.6347C193.437 29.5474 193.473 29.4636 193.537 29.4018C193.6 29.34 193.687 29.3053 193.776 29.3053H196.914C197.004 29.3053 197.09 29.34 197.154 29.4018C197.217 29.4636 197.253 29.5474 197.253 29.6347V50.0603C197.253 50.1477 197.217 50.2315 197.154 50.2932C197.09 50.355 197.004 50.3897 196.914 50.3897ZM204.314 39.6969C203.794 40.0908 203.443 40.6595 203.261 41.4035C203.211 41.6086 203.376 41.8053 203.593 41.8053H209.564C209.771 41.8053 209.934 41.6253 209.9 41.4268C209.781 40.723 209.47 40.162 208.968 39.7421C208.379 39.2503 207.608 39.0043 206.657 39.0043C205.705 39.0043 204.924 39.2351 204.314 39.6969ZM211.962 37.9648C213.182 39.2604 213.792 41.0928 213.792 43.4619V43.8554C213.792 43.9427 213.756 44.0265 213.693 44.0883C213.629 44.15 213.543 44.1847 213.453 44.1847H203.478C203.428 44.1848 203.379 44.1955 203.334 44.2159C203.289 44.2363 203.249 44.266 203.217 44.3029C203.185 44.3398 203.162 44.3831 203.149 44.4296C203.136 44.4762 203.134 44.525 203.142 44.5725C203.302 45.4526 203.703 46.1518 204.345 46.6698C205.079 47.2626 206.005 47.5584 207.122 47.5584C208.564 47.5584 209.898 47.0121 211.126 45.9192C211.276 45.7857 211.513 45.814 211.629 45.9763L213.155 48.1019C213.203 48.168 213.224 48.2488 213.214 48.3291C213.204 48.4093 213.165 48.4834 213.103 48.5371C212.354 49.1733 211.522 49.7102 210.628 50.1337C209.635 50.6053 208.466 50.8416 207.122 50.8416C205.571 50.8416 204.216 50.5351 203.058 49.9229C201.899 49.3107 201 48.4473 200.359 47.3325C199.718 46.2181 199.397 44.928 199.397 43.4619C199.397 41.9964 199.707 40.7013 200.328 39.5763C200.948 38.4521 201.817 37.5786 202.934 36.9558C204.051 36.3338 205.354 36.0222 206.843 36.0222C209.034 36.0222 210.741 36.6699 211.962 37.9648ZM134.835 31.5728C134.835 32.8152 133.798 33.8224 132.518 33.8224C131.238 33.8224 130.2 32.8152 130.2 31.5725C130.2 30.3299 131.238 29.3227 132.518 29.3227C133.798 29.3227 134.835 30.3299 134.835 31.5725" fill="#333333"/>
<path d="M77.8671 23.3644L62.9493 29.3575C62.1197 29.6908 62.1283 30.8351 62.9631 31.1563L77.9431 36.9239C79.2593 37.4307 80.725 37.4307 82.0412 36.9239L97.0214 31.1561C97.856 30.8351 97.865 29.691 97.035 29.3577L82.1176 23.3642C80.7567 22.8174 79.2278 22.8174 77.8669 23.3642" fill="#FCB400"/>
<path d="M81.3213 40.0732V54.4816C81.3213 55.1667 82.033 55.6361 82.6891 55.3836L99.3815 49.093C99.5676 49.0214 99.7273 48.8971 99.8399 48.7362C99.9524 48.5754 100.013 48.3854 100.012 48.191V33.7828C100.012 33.0975 99.3007 32.6283 98.6446 32.8808L81.9523 39.1714C81.7662 39.2431 81.6065 39.3674 81.494 39.5282C81.3815 39.6891 81.3213 39.879 81.3213 40.0734" fill="#18BFFF"/>
<path d="M77.4233 40.8163L72.4694 43.1386L71.9664 43.3747L61.509 48.2396C60.8463 48.55 60 48.081 60 47.3661V33.8428C60 33.5841 60.1366 33.3608 60.3198 33.1928C60.395 33.1202 60.4802 33.0581 60.5731 33.0084C60.8228 32.8628 61.1792 32.8239 61.4823 32.9403L77.34 39.0408C78.1461 39.3513 78.2094 40.4479 77.4233 40.8165" fill="#F82B60"/>
<path d="M77.4233 40.8163L72.4694 43.1386L60.3198 33.1926C60.395 33.12 60.4803 33.058 60.5731 33.0084C60.8228 32.8628 61.1793 32.8239 61.4823 32.9403L77.3401 39.0408C78.1461 39.3513 78.2095 40.4479 77.4233 40.8165" fill="black" fill-opacity="0.25"/>
</g>
<defs>
<clipPath id="clip0_242_9212">
<rect width="154" height="48" fill="white" transform="translate(60 16)"/>
</clipPath>
</defs>
</svg>
