<svg width="274" height="80" viewBox="0 0 274 80" fill="none" xmlns="http://www.w3.org/2000/svg">
<path d="M109.377 49.987V28.0316H112.789V36.6873C113.863 35.0874 115.474 34.2871 117.622 34.2865C119.454 34.2865 120.87 34.8288 121.871 35.9133C122.871 36.9979 123.372 38.509 123.372 40.4466V49.987H119.961V40.9205C119.961 38.4146 118.844 37.1615 116.612 37.1611C115.495 37.1611 114.579 37.4981 113.864 38.172C113.148 38.846 112.79 39.7937 112.789 41.0152V49.9867L109.377 49.987Z" fill="#323232"/>
<path d="M139.493 48.092C137.977 49.6084 136.071 50.3665 133.776 50.3665C131.48 50.3665 129.569 49.6084 128.042 48.092C126.515 46.5756 125.751 44.6483 125.751 42.3101C125.752 39.972 126.515 38.0503 128.042 36.5452C129.569 35.0397 131.48 34.2868 133.776 34.2865C136.071 34.2861 137.977 35.0391 139.493 36.5452C141.01 38.0512 141.768 39.9729 141.768 42.3101C141.768 44.6473 141.01 46.5746 139.493 48.092ZM130.538 46.1648C131.348 47.1124 132.427 47.5864 133.776 47.5864C135.124 47.5864 136.203 47.1124 137.014 46.1648C137.824 45.2171 138.229 43.9322 138.23 42.3101C138.23 40.7097 137.819 39.4356 136.998 38.4877C136.177 37.5399 135.102 37.066 133.776 37.0661C132.428 37.0661 131.348 37.5347 130.538 38.4718C129.727 39.409 129.322 40.6882 129.321 42.3094C129.321 43.9322 129.727 45.2173 130.538 46.1648Z" fill="#323232"/>
<path d="M149.664 50.366C146.526 50.366 144.957 48.6811 144.957 45.3114V37.5403H142.588V34.6657H145.052L145.842 30.1491H148.4V34.6657H154.497V37.5403H148.4V45.2168C148.4 46.628 148.916 47.3336 149.948 47.3335C150.917 47.3335 151.791 46.4488 152.57 44.6797L155.224 46.0382C153.918 48.9237 152.065 50.3663 149.664 50.366Z" fill="#323232"/>
<path d="M156.321 57C154.804 57 153.551 56.5788 152.562 55.7364L153.825 53.0512C154.436 53.7669 155.099 54.125 155.815 54.1258C156.763 54.1258 157.237 53.5151 157.237 52.2936V34.6656H160.648V52.3559C160.648 53.9986 160.243 55.1833 159.432 55.9097C158.621 56.6363 157.584 56.9997 156.321 57ZM158.943 32.075C158.382 32.0941 157.836 31.8896 157.426 31.5065C157.229 31.3206 157.074 31.0949 156.97 30.8444C156.867 30.5939 156.818 30.3243 156.826 30.0534C156.819 29.7803 156.868 29.5086 156.972 29.2556C157.075 29.0027 157.23 28.7741 157.426 28.5844C157.839 28.2084 158.377 28 158.935 28C159.493 28 160.031 28.2084 160.443 28.5844C160.644 28.7717 160.803 28.9995 160.909 29.2528C161.015 29.506 161.066 29.7789 161.059 30.0534C161.064 30.3229 161.012 30.5904 160.906 30.8382C160.8 31.086 160.642 31.3084 160.443 31.4907C160.244 31.6821 160.009 31.8322 159.751 31.9325C159.494 32.0328 159.219 32.0812 158.943 32.075Z" fill="#323232"/>
<path d="M169.121 50.3661C167.373 50.3661 165.956 49.9291 164.872 49.0552C163.788 48.1812 163.245 47.0074 163.245 45.5336C163.245 44.1859 163.809 43.0431 164.935 42.1054C166.062 41.1677 167.478 40.6991 169.184 40.6997C170.932 40.6997 172.406 41.2578 173.607 42.3741V40.51C173.607 39.4152 173.328 38.5676 172.77 37.967C172.211 37.3664 171.416 37.0662 170.385 37.0666C168.3 37.0666 167.004 38.1301 166.499 40.2571L163.371 39.5938C163.792 37.9512 164.624 36.656 165.867 35.7082C167.11 34.7605 168.658 34.2866 170.511 34.2866C172.533 34.2866 174.128 34.8184 175.297 35.8821C176.466 36.9457 177.05 38.4988 177.05 40.5414V49.9871H173.733V48.0598C172.617 49.5975 171.079 50.3664 169.121 50.3661ZM169.752 47.8389C171.269 47.8389 172.553 47.0808 173.607 45.5646V45.0902C172.553 43.8266 171.268 43.1948 169.752 43.1949C168.868 43.1949 168.151 43.411 167.603 43.8431C167.344 44.034 167.134 44.2841 166.991 44.5727C166.848 44.8611 166.776 45.1796 166.782 45.5014C166.773 45.8267 166.842 46.1493 166.982 46.443C167.122 46.7367 167.329 46.9932 167.587 47.1915C168.125 47.6232 168.847 47.839 169.752 47.8389Z" fill="#323232"/>
<path d="M180.37 49.987V34.6656H183.687V37.3192C184.529 35.3817 185.982 34.4129 188.046 34.4128C189.267 34.4128 190.278 34.813 191.079 35.6132C191.88 36.4135 192.28 37.4876 192.279 38.8354C192.27 39.6421 192.132 40.4422 191.868 41.2047L188.741 40.8888C188.805 40.4701 188.847 40.0484 188.867 39.6253C188.867 38.0458 188.214 37.256 186.909 37.2559C186.024 37.2559 185.281 37.7245 184.681 38.6616C184.081 39.5988 183.781 40.8361 183.781 42.3737V49.987H180.37Z" fill="#323232"/>
<path d="M88.0719 37.0095C90.6142 35.5971 94.0962 33.6623 94.0962 28.0312H89.88C89.88 31.1818 88.3461 32.0339 86.0243 33.3239C83.482 34.7368 80 36.6708 80 42.3023H84.2162C84.2162 39.1515 85.7501 38.2994 88.0719 37.0095Z" fill="#FF3C00"/>
<path d="M95.3692 35.7155C95.3692 38.8662 93.8354 39.7183 91.5136 41.008C88.9719 42.4205 85.4893 44.355 85.4893 49.9864H89.7053C89.7053 46.8357 91.2391 45.9836 93.561 44.6937C96.1033 43.2813 99.5851 41.347 99.5851 35.7155H95.3692Z" fill="#FF3C00"/>
</svg>
