<svg width="274" height="80" viewBox="0 0 274 80" fill="none" xmlns="http://www.w3.org/2000/svg">
<path fill-rule="evenodd" clip-rule="evenodd" d="M172.592 47.6179C175.891 47.6179 178.574 44.9879 178.574 41.7553C178.574 38.5226 175.891 35.8926 172.592 35.8926C169.293 35.8926 166.609 38.5226 166.609 41.7553C166.609 44.9879 169.293 47.6179 172.592 47.6179ZM178.574 27.1855H178.736H181.408V50.4152H178.574V48.0958C176.938 49.5815 174.829 50.3953 172.592 50.3953C167.731 50.3953 163.776 46.5194 163.776 41.7553C163.776 36.9909 167.731 33.1151 172.592 33.1151C174.829 33.1151 176.938 33.9289 178.574 35.4147V27.1855ZM113.816 47.5156C117.115 47.5156 119.799 44.8856 119.799 41.6529C119.799 38.4203 117.115 35.7904 113.816 35.7904C110.518 35.7904 107.834 38.4203 107.834 41.6529C107.834 44.8856 110.518 47.5156 113.816 47.5156ZM107.834 35.3127C109.47 33.8269 111.579 33.013 113.816 33.013C118.678 33.013 122.633 36.8889 122.633 41.6529C122.633 46.4171 118.678 50.293 113.816 50.293C111.579 50.293 109.47 49.4793 107.834 47.9933V56.2226H105V32.993H107.834V35.3127ZM128.04 40.3039C128.678 37.6785 131.055 35.7934 133.766 35.7934C136.441 35.7934 138.682 37.6383 139.28 40.3039H128.04ZM133.766 32.993C128.977 32.993 125.082 36.9009 125.082 41.7041C125.082 46.5074 128.977 50.4152 133.766 50.4152C136.447 50.4152 138.908 49.4081 140.519 47.6523L141.356 46.7396L141.463 46.6218L141.346 46.5132L139.527 44.8346L139.409 44.7261L139.301 44.8439L138.464 45.7567C137.397 46.9202 135.641 47.6149 133.766 47.6149C131.055 47.6149 128.678 45.7298 128.04 43.1042H142.224V41.7041C142.224 36.8193 138.509 32.993 133.766 32.993ZM198.166 41.7041C198.166 44.9633 195.482 47.6149 192.183 47.6149C188.885 47.6149 186.201 44.9633 186.201 41.7041C186.201 38.4448 188.885 35.7933 192.183 35.7933C195.482 35.7933 198.166 38.4448 198.166 41.7041ZM192.183 32.993C187.322 32.993 183.367 36.9007 183.367 41.7041C183.367 46.5074 187.322 50.4152 192.183 50.4152C197.045 50.4152 201 46.5074 201 41.7041C201 36.9007 197.045 32.993 192.183 32.993ZM152.755 32.993C150.785 32.993 148.909 33.7429 147.433 35.1125V32.993H144.673V50.4152H147.433V41.5243C147.433 38.3523 149.82 35.7715 152.755 35.7715C155.69 35.7715 158.078 38.3523 158.078 41.5243V50.4152H160.836V41.5243C160.836 36.8202 157.211 32.993 152.755 32.993Z" fill="#1A2022"/>
<path fill-rule="evenodd" clip-rule="evenodd" d="M73 43.7782H86.3333V56.8153L99.6667 43.7782V30.7412H86.3333L73 43.7782Z" fill="#FF4876"/>
</svg>
