<svg width="72" height="72" viewBox="0 0 72 72" fill="none" xmlns="http://www.w3.org/2000/svg">
<path d="M18 52.8L12 49.5V42" stroke="#116273" stroke-width="4.5" stroke-linecap="round" stroke-linejoin="round"/>
<path d="M18 52.8L12 49.5V42" stroke="black" stroke-opacity="0.2" stroke-width="4.5" stroke-linecap="round" stroke-linejoin="round"/>
<path d="M12 30V22.5L18 19.2" stroke="#116273" stroke-width="4.5" stroke-linecap="round" stroke-linejoin="round"/>
<path d="M12 30V22.5L18 19.2" stroke="black" stroke-opacity="0.2" stroke-width="4.5" stroke-linecap="round" stroke-linejoin="round"/>
<path d="M30 12.3L36 9L42 12.3" stroke="#116273" stroke-width="4.5" stroke-linecap="round" stroke-linejoin="round"/>
<path d="M30 12.3L36 9L42 12.3" stroke="black" stroke-opacity="0.2" stroke-width="4.5" stroke-linecap="round" stroke-linejoin="round"/>
<path d="M54 19.2L60 22.5V30" stroke="#116273" stroke-width="4.5" stroke-linecap="round" stroke-linejoin="round"/>
<path d="M54 19.2L60 22.5V30" stroke="black" stroke-opacity="0.2" stroke-width="4.5" stroke-linecap="round" stroke-linejoin="round"/>
<path d="M60 42V49.5L54 52.86" stroke="#116273" stroke-width="4.5" stroke-linecap="round" stroke-linejoin="round"/>
<path d="M60 42V49.5L54 52.86" stroke="black" stroke-opacity="0.2" stroke-width="4.5" stroke-linecap="round" stroke-linejoin="round"/>
<path d="M42 59.7L36 63L30 59.7" stroke="#116273" stroke-width="4.5" stroke-linecap="round" stroke-linejoin="round"/>
<path d="M42 59.7L36 63L30 59.7" stroke="black" stroke-opacity="0.2" stroke-width="4.5" stroke-linecap="round" stroke-linejoin="round"/>
<path d="M36 36L42 32.7" stroke="#116273" stroke-width="4.5" stroke-linecap="round" stroke-linejoin="round"/>
<path d="M36 36L42 32.7" stroke="black" stroke-opacity="0.2" stroke-width="4.5" stroke-linecap="round" stroke-linejoin="round"/>
<path d="M54 25.8L60 22.5" stroke="#116273" stroke-width="4.5" stroke-linecap="round" stroke-linejoin="round"/>
<path d="M54 25.8L60 22.5" stroke="black" stroke-opacity="0.2" stroke-width="4.5" stroke-linecap="round" stroke-linejoin="round"/>
<path d="M36 36V43.5" stroke="#116273" stroke-width="4.5" stroke-linecap="round" stroke-linejoin="round"/>
<path d="M36 36V43.5" stroke="black" stroke-opacity="0.2" stroke-width="4.5" stroke-linecap="round" stroke-linejoin="round"/>
<path d="M36 55.5V63" stroke="#116273" stroke-width="4.5" stroke-linecap="round" stroke-linejoin="round"/>
<path d="M36 55.5V63" stroke="black" stroke-opacity="0.2" stroke-width="4.5" stroke-linecap="round" stroke-linejoin="round"/>
<path d="M36 35.9999L30 32.6399" stroke="#116273" stroke-width="4.5" stroke-linecap="round" stroke-linejoin="round"/>
<path d="M36 35.9999L30 32.6399" stroke="black" stroke-opacity="0.2" stroke-width="4.5" stroke-linecap="round" stroke-linejoin="round"/>
<path d="M18 25.8L12 22.5" stroke="#116273" stroke-width="4.5" stroke-linecap="round" stroke-linejoin="round"/>
<path d="M18 25.8L12 22.5" stroke="black" stroke-opacity="0.2" stroke-width="4.5" stroke-linecap="round" stroke-linejoin="round"/>
</svg>
